<?xml version="1.0" encoding="utf-8"?>
<!-- Generator: Adobe Illustrator 28.2.0, SVG Export Plug-In . SVG Version: 6.00 Build 0)  -->
<svg version="1.1" xmlns="http://www.w3.org/2000/svg" xmlns:xlink="http://www.w3.org/1999/xlink" x="0px" y="0px"
	 viewBox="0 0 500 500" style="enable-background:new 0 0 500 500;" xml:space="preserve">
<style type="text/css">
	.st0{fill-rule:evenodd;clip-rule:evenodd;fill:#A5BB48;}
	.st1{fill-rule:evenodd;clip-rule:evenodd;fill:#8DA334;}
	.st2{fill-rule:evenodd;clip-rule:evenodd;fill:#B7CB60;}
	.st3{fill-rule:evenodd;clip-rule:evenodd;fill:#6E8E42;}
	.st4{fill-rule:evenodd;clip-rule:evenodd;fill:#5D7937;}
	.st5{fill-rule:evenodd;clip-rule:evenodd;fill:#85A658;}
	.st6{fill-rule:evenodd;clip-rule:evenodd;fill:#DBDB9E;}
	.st7{fill-rule:evenodd;clip-rule:evenodd;fill:#AEAE6A;}
	.st8{fill-rule:evenodd;clip-rule:evenodd;fill:#FFEAE7;}
	.st9{fill-rule:evenodd;clip-rule:evenodd;fill:#CC4E3A;}
	.st10{fill-rule:evenodd;clip-rule:evenodd;fill:#F79687;}
	.st11{fill-rule:evenodd;clip-rule:evenodd;fill:#FFFFFF;}
	.st12{fill-rule:evenodd;clip-rule:evenodd;fill:#6E7E27;}
	.st13{fill-rule:evenodd;clip-rule:evenodd;fill:#3E2C1F;}
</style>
<g id="BACKGROUND">
</g>
<g id="OBJECTS">
	<path class="st0" d="M381.14,274.27c3.56,6.98,2.83,17.21-1.73,23.59c-2.1,2.48-5.36,3.4-8.27,4.58c-0.64,6.92-4.4,7.3-8.02,12
		c-1.83,2.43-2.76,5.45-4.89,7.68c-3.23,3.46-8.08,5.39-12.79,5.27c-0.08-0.01-0.16-0.03-0.24-0.04
		c0.44,10.1-7.42,14.85-17.18,14.62c-2.19,4.92-7.14,7.42-12.38,6.11c-1.77-0.41-3.6-0.93-5.07-2.01c-0.1,0.14-0.19,0.28-0.26,0.4
		c-2.19,2.96-5.34,4.91-8.71,6.26c-4.14,1.94-8.67,3.19-13.27,2.84c-3.66-0.33-7.17-1.44-10.52-2.9c-0.99,1.27-2.75,2.31-3.8,3.06
		c-5.08,2.99-11.21,4.01-17.05,4.05c-5.94-0.29-12.08-1.29-17.34-4.19c-2.3-1.32-4.2-3.17-5.9-5.19c-0.86-0.8-1.54-1.73-2.14-2.7
		c-0.02-0.03-0.04-0.06-0.06-0.08c-0.13-0.16-0.23-0.33-0.29-0.5c-0.5-0.85-0.96-1.72-1.45-2.58c-1.28-1.57-2.38-3.36-3.93-4.68
		c-5.47,3.77-10.57,8.86-17.34,9.96c-4.01,1.38-8.39,1.87-12.59,1.31c-9.85-0.95-19.11-6.78-23.05-16.04
		c-0.59-0.9-0.6-1.72-0.31-2.3c-0.32-1.09-0.6-2.15-0.9-2.89c-0.53-1.86-1.18-3.71-1.6-5.61c-3.67,0.72-7.46,0.74-11.14,0.02
		c-5.63-1.2-12.1-3.8-15.33-8.82c-4.14-5.71-5.09-10.09-4.66-17.03c0-0.06-0.01-0.11-0.02-0.17c-0.12-0.04-0.25-0.09-0.37-0.17
		c-4.45-2.26-6.59-6.21-7.58-10.96c-1.61-7.48-1.6-16.25,2.88-22.74c-0.25-0.33-0.48-0.69-0.67-1.07c-1.26-2.1-2.6-4.2-3.37-6.53
		c-1.13-3.41-0.88-7.05-0.64-10.59c0.3-4.83,1.78-9.47,4.4-13.54c1.29-2.14,3.19-3.8,4.83-5.66c1.05-1.06,1.36-2.54,2.01-3.84
		c1.34-3.43,4.43-5.6,7.71-6.99c-0.52-1.18-0.76-2.59-1.03-3.68c-0.9-3.54-0.42-7.32,1.85-10.26c1.5-2.79,3.55-5.47,6.27-7.16
		c0.25-5.98,6.29-9.25,11.64-9.83c-1.82-4.99-2.57-10.52-0.89-15.65c2.04-7.55,7.71-14.79,15.38-16.59
		c-0.48-1.67,0.04-3.96,0.07-5.46c0.04-6.16,4.84-10.45,10.47-11.97c0.77-7.65,2.8-15.92,11.84-16.82
		c-0.14-7.95,4.62-13.44,12.86-11.28c0.2-2.07,0.24-4.18,0.8-6.2c1.07-3.81,4.2-7.04,7.92-8.35c0.87-0.23,2.51-0.63,3.95-0.62
		c-0.66-4.8-0.59-9.92,1.25-14.45c3.39-8.25,12.11-15.96,21.52-13.96c2.22,0.35,4.2,1.51,5.61,3.24c1.57,1.87,3.3,3.85,3.64,6.36
		c0.06,0.41,0.17,0.91,0.26,1.41c2.76-0.1,6.16,2.31,7.5,4.25c1.35,2.24,1.85,4.91,1.97,7.53c2.67-0.72,6.31-0.66,8.24-0.17
		c2.81,0.97,5.44,2.49,7.96,4.04c1.56,1.09,2.82,2.55,3.77,4.2c0.32,0.57,0.28,1.12,0.03,1.55c0.59,2.09,0.84,4.29,0.51,6.45
		c-0.11,0.76-0.26,1.51-0.43,2.26c0.82,0.22,1.64,0.59,2.21,0.86c2.52,1.43,4.51,3.67,6.17,6.01c0.91,1.19,1.55,2.56,1.9,4.01
		c1.1-0.31,2.31-0.37,3.38-0.51c5.58-0.49,11.33,4.48,11.04,10.2c-0.01,1.25-0.17,2.48-0.4,3.71c2,0.16,4.25,1.58,5.73,2.55
		c5.94,4.09,9,11.97,7.77,19.02c-0.37,1.99-0.91,3.94-1.51,5.87c0.33,0.73,0.06,1.64,0.09,2.43c0.29,4.88,3.07,9.11,5.9,12.91
		c0.66,0.95,1.33,1.88,2.02,2.81c0.72,0.49,1.4,1.11,1.95,1.48c0.85,0.68,1.79,1.26,2.61,1.99c2.6,2.54,4.02,6.12,5.33,9.45
		c1,3.35,1.24,6.87,2.02,10.27c0.75-0.2,1.71-0.03,2.43,0.17c1.9,0.33,3.63,1.21,5.15,2.37c4.09,2.87,6.81,7.19,9.01,11.59
		c1.23,2.74,1.76,5.73,2.42,8.65c5.54,1.51,5.83,7.84,5.11,12.57c5.02,2.69,7.83,5.45,9.61,10.95c2.52,6.05,1.8,12.82-1.37,18.43
		c-0.84,1.73-2.08,3.16-3.3,4.61C378.44,269.29,380.48,273.03,381.14,274.27z"/>
	<path class="st1" d="M231.32,92.72c-0.03-0.09-0.06-0.19-0.09-0.28c-0.08-0.28-0.16-0.57-0.23-0.86
		c-1.85,0.1-2.58-10.65-0.72-10.91c0.64-2.12,3.18-11.65,5.84-11.01c2.41-2.88,5.63-5.15,9.15-6.45c0.64-0.03,1.04,0.17,1.23,0.47
		c0.09-0.04,0.18-0.08,0.27-0.11c0.41-0.79,1.43-0.52,2.16-0.6c0.94-0.07,1.55,1.19,0.84,1.85c-0.61,0.49-1.47,0.45-2.18,0.74
		c-5.23,2.16-9.37,6.88-11.24,12.18c-1.27,3.49-1.79,7.19-1.71,10.9c0,2.1,0.16,4.2,0.46,6.28c0.17,1.15-1.35,1.56-1.92,0.8
		c-0.16-0.06-0.31-0.12-0.45-0.2c-0.35-0.12-0.69-0.22-1.04-0.29c-4.54-0.42-8.29,3.71-10.29,7.42c-0.61,1.25-1.1,2.55-1.39,3.91
		c-0.17,1.01-0.2,2.49-1.54,2.58c-1.66-0.03-3.3,0.46-4.52,1.63c-4.01,3.51-5.07,9.37-2.98,14.18c0,1.64-2.59,1.06-3.75,1.99
		c-2.45,1.26-4.1,3.7-5.02,6.23c-0.76,2.56-0.91,5.36-0.42,7.98c0.22,1.05,0.53,2.09,1.07,3.03c0.15,0.24,0.18,0.48,0.14,0.7
		c-0.06-0.01-0.13-0.01-0.19-0.02l0,0c-0.19-0.02-0.37-0.04-0.56-0.05c-1.19-0.09-2.35-0.07-3.53,0.12
		c-0.96,0.15-1.93,0.37-2.87,0.67c-1.1,0.35-2.15,0.8-3.21,1.25c-1.06,0.45-2.14,0.92-3.13,1.51c-1.06,0.63-2.07,1.38-2.94,2.26
		c-0.82,0.84-1.54,1.81-2.13,2.82c-0.19,0.33-0.37,0.67-0.52,1.02c-2.19,2.93-3.3,6.54-2.11,10.25c-0.08,2.07-3.51,2.68-4.58,4.49
		c-3.73,4.41-2.59,11.28,0.33,15.83c5.77,6.26-4.29,4.14-8.53,10.27c-1.82,2.28-0.36,5.13-1.44,7.39c-1.38,1.17-3.47,1.17-4.88,2.41
		c-3.79,2.7-5.29,7.8-5.11,12.28c-0.18,4.5,3.65,8.83,1.59,10.3c-0.18,0.35-0.54,0.59-0.95,0.59c-1.48-0.06-2.77,0.98-3.87,1.85
		c-6.35,5.35-6.44,13.15-0.79,18.94c0.21,1.6-1.14,2.97-1.48,4.5c-1.51,3.84-0.89,8.72,2.9,10.96c0.89,0.47,1.24,1.09,1.26,1.79
		c-0.22,0.28-0.43,0.56-0.63,0.85c-0.73,1.03-1.27,2.2-1.74,3.36c-0.47,1.16-0.87,2.36-1.13,3.59c-0.12,0.6-0.24,1.19-0.34,1.79
		c-1.23,5.61,0.28,11.68,3.96,16.09c0.17,0.25,0.35,0.51,0.53,0.75c0.44,0.58,0.93,1.12,1.46,1.61c0.48,0.45,1,0.88,1.56,1.22
		c0.31,0.18,0.62,0.35,0.94,0.51c1.93,1.15,4.14,1.87,6.35,2.31c0.89,0.31,2.08,0.18,3.05,0.41c0.69-0.31,1.5,0.11,1.32,1.4
		c0.84,6.87,9.78,9.04,15.39,6.69c2.49-0.07,4.17,2.49,6.57,3.02c4.91,1.95,10.97,0.11,13.3-4.79c0.44-1.04,0.63-3.31,2.28-2.11
		c0.54,0.69,0.31,1.68,0.68,2.46c0.43,1.37,1.51,2.35,2.21,3.56c0.61,1.41,0.14,3.01,0.19,4.49c-0.11,2.2,0.4,4.46-0.26,6.61
		c-0.13,0.45-0.3,0.88-0.49,1.31c0.92,1.49,0.85,3.66,1.37,5.29c3.84,11.45-0.91,24.89-13.84,24.89c-0.71,0-1.44-0.04-2.2-0.12
		c-3.72-0.27-7.62-0.4-10.84-2.52c-3.92-2.56-8.25-4.96-10.93-8.93c-3.52-4.92-4.53-10.83-5.55-16.62
		c-3.75,0.09-7.54,1.33-11.27,0.26c-6.87-1.82-13.65-6.08-17.07-12.46c-4.76-7.99,0.09-11.5-4.6-15.46
		c-6.43-7.36-9.58-18.94-4.37-27.78c0.37-0.57,1.12-2.04,2.01-3.57c-0.73-1.08-1.36-2.23-1.98-3.27
		c-4.09-7.22-3.43-16.55-0.12-23.95c1.45-3.63,4.02-6.58,6.63-9.41c1.54-3.23,3.22-6.5,6.09-8.76c1.57-1.49,3.6-1.41,2.78-4.07
		c-0.29-3.59-0.56-7.34,0.65-10.79c1.09-3.33,3.81-5.48,6.2-7.81c1.43-6.42,6.05-10.34,12.58-11.02
		c-5.43-12.06,0.96-29.78,14.51-32.71c-0.07-0.06-0.13-0.12-0.19-0.18c-1.42-3.12,0.23-6.95,1.61-9.85
		c1.11-1.98,2.57-3.83,4.64-4.85c1.24-1.02,3.54-1.05,4.32-2.39c0.63-8.85,2.79-13.78,11.68-16.58
		c-0.12-6.22,4.07-12.96,10.98-11.82c0.49-0.17,1.19-0.45,1.82-0.54c-0.15-1.05,0.21-2.3,0.26-3.27c0.6-3.26,2.32-6.37,5.01-8.36
		C224.41,93.07,228.1,91.75,231.32,92.72L231.32,92.72z M310.31,227.87c-0.2-0.05-0.38-0.16-0.55-0.28
		c-0.7,0.07-1.22-0.59-1.65-1.06c-0.04,0.04-0.08,0.08-0.13,0.12c-0.01,0.01-0.02,0.02-0.03,0.03c-0.71,1.43-2.88,0.86-4.02,0.29
		c-0.12,0.03-0.24,0.03-0.34,0.02c-0.08-0.32-0.19-0.64-0.3-0.95c-0.23-0.64-0.5-1.28-0.83-1.87c-0.67-1.21-1.54-2.29-2.6-3.19
		c-0.55-0.47-1.11-0.89-1.73-1.25c-0.35-0.2-0.7-0.38-1.07-0.55c0.72-0.04,1.71,0.26,2.93,1.14c1.66-0.36,3.1,1.19,4.54,1.79
		c1.64-1.29,5.53,2.25,6.7,3.47c0.86,0.76,0.55,2.33-0.58,2.33C310.54,227.92,310.43,227.9,310.31,227.87L310.31,227.87z
		 M203.89,224.99c0.52,0.77,1.57,1.77,2.41,0.84c0.37,0.12,0.79,0.12,1.17,0.13c0.21,0.01,0.41,0.01,0.62,0.01
		c0.03,0.02,0.06,0.05,0.1,0.07c0.38,0.23,0.87,0.17,1.21-0.09c0.9-0.07,2.31,0.38,2.52-0.88c0.07-0.56-0.31-1.1-0.87-1.2
		c-0.6-1.97-4.24-3.7-6.16-2.99c-1.06-0.46-2.37-1.51-3.52-0.82c-1.06-0.73-3.71-2.2-4.03-0.06c-0.01,0.66,0.63,1.19,1.28,1.05
		C200.66,221.86,202.38,223.42,203.89,224.99L203.89,224.99z M247.74,264.11c7.55,0.11,15.93-1.58,21.38-7.17
		c2.19-2.43,3.72-5.43,4.43-8.62c0.2-1.47,1.46-7.4-0.83-7.41c0-0.54-0.04-1.07,0.05-1.6c-0.09-1.93-2.71-1.77-2.2,1.58
		c0.43,9.21-7.51,17.34-16.4,18.51c-3.13,0.33-6.32,0.28-9.42-0.33c-1.54,0.11-1.54,1.47-0.54,2.03
		c-6.41-0.71-12.82-3.64-16.22-9.34c-0.18-0.84-1.14-0.99-1.7-0.59c-2.17-2.91-3.61-6.21-2.83-9.13c1.9-1.03-0.51-3.15-1.64-1.52
		c-1.68,3.2-0.41,7.08,1.53,9.89C228.26,259.04,237.89,264.17,247.74,264.11L247.74,264.11z M266.62,255.49
		c-1.15,1.19-2.49,2.17-3.95,2.98C264.1,257.62,265.43,256.62,266.62,255.49L266.62,255.49z M172.55,285
		c-1.48,8.07,3.87,17.35,12.8,17.06c1.39,0.02,1.38-2.16,0-2.14c-1.08-0.04-2.17-0.18-3.21-0.47c0-0.28-0.12-0.56-0.42-0.78
		c-0.47-0.37-0.94-0.74-1.39-1.13c-1.87-1.67-3.22-3.85-4.01-6.22c-0.1-0.31-0.19-0.62-0.26-0.93c0.55,0.02,1.12-0.33,1.11-1.04
		c-0.15-1.82,0.08-3.68-0.02-5.5c0.65-0.44,0.79-1.49-0.09-2.03c0.02-0.62-0.56-0.91-0.98-1.25c-0.86-0.78-1.58-1.69-2.26-2.62
		c-0.55-0.48-0.76-1.37-1.03-2.14c0.21,0.05,0.43,0.1,0.65,0.15c1.41-0.01,1.37-2.12-0.01-2.18c-0.52-0.25-1.01-0.56-1.48-0.91
		c-0.12-0.4-0.46-0.68-0.87-0.73c-0.62-0.57-1.19-1.2-1.72-1.85c1.04-0.75,0.02-1.85-0.38-2.67c-0.81-1.47-1.09-3.16-1.75-4.67
		c-0.59-2.21,0.98-4.62,0.32-6.7c1.62-3.06,4.05-5.46,7.13-7.1c0.71-0.32,1.85-0.38,1.68-1.47c-1.37-3.61-9.58,4.79-10.24,6.76
		c-4.3,6.39-3.77,14.68,1.68,18.97C165.92,277.59,168.42,283.15,172.55,285L172.55,285z M299.13,313.5
		c1.16,0.33,2.38,0.43,3.55,0.25c-1.06,3.65-3.33,6.51-7.69,7.91c-3.29,1.24-6.85,0.77-10.11-0.36c-1.82-0.48-3.48-1.72-5.29-2.25
		c-1.66,1.01-3.52,1.69-5.38,2.24c-1.11,0.55-2.35,0.81-3.57,0.93c-0.48,0.02-0.95,0.01-1.42-0.03c-0.02,0-0.04,0-0.07,0
		c-0.34,0-0.67-0.01-1.01-0.03c-0.69-0.05-1.38-0.13-2.05-0.32c-1.22-0.34-2.42-0.89-3.5-1.55c-0.63-0.39-1.23-0.82-1.77-1.32
		c-0.46-0.42-0.91-0.87-1.28-1.38c-0.69-0.96-1.3-2.03-1.68-3.15c0.03,0.08,0.05,0.16,0.08,0.23c-0.03-0.08-0.05-0.16-0.08-0.24
		c-0.04-0.12-0.08-0.24-0.11-0.37c-0.81-0.06-1.61,0.65-1.01,1.68c-2.75,1.97-6.1,2.9-8.97,4.67c-3.09,2.3-6.34,4.46-9.08,7.19
		c-2.61,3.2-4.32,7.03-6.52,10.51c-1.08,1.95-2.51,3.94-2.49,6.25c0.33,2.48,2.56,4.22,4.15,5.99c4.86,5.37,11.33,9,18.56,9.87
		c0.9,0.1,1.81,0.14,2.72,0.14c4.05,0,8.11-0.9,11.95-2.13c3.61-1.16,6.57-3.81,10.27-4.71c3.35-0.29,6.1,2.7,9.44,2.92
		c6.17,0.1,12.05-2.73,17.42-5.53c2.37-1.18,4.33-3.01,6.61-4.3c3.94,0.36,7.82,3.22,11.82,0.28c2.55-1.59,3.95-4.99,6.87-5.89
		c8.4,1.28,13.43-3.28,15.16-11.28c0.71-3.27,3.09-1.79,5.47-2.67c5.55-1.63,9.08-6.73,12.5-11.04c0.37-1.63-0.81-1.57-2.03-1.51
		c-0.66,0.03-1.34,0.06-1.8-0.17c-4.35-1.39-7.29-6.17-12.11-6.06c-5.28,0.82-10.59-0.19-15.19-2.93c-2.7-0.98-5.95-6.12-8.75-3.41
		c-3.77,3.5-9.24,4.18-14.11,3.09c-1.2-0.32-2.51-0.13-3.15,1.04c-0.59,0.86-1.51,1.46-2.01,2.38c-0.01,0.17-0.01,0.35-0.02,0.52
		c-0.84,0.18-1.71,0.28-2.54,0.38c-0.61,0.01-1.38,0-1.66,0.64c-1.55-0.33-3.09-0.87-4.41-1.76c-0.13-0.12-0.26-0.22-0.4-0.31
		c-0.86-2.16-3.6-0.26-1.21,1.84C294.47,311.46,298.05,313.51,299.13,313.5L299.13,313.5z M302.99,187.61
		c0.41-0.74,1.74-1.44,4.69-1.33c3.09,0.15,6.03,1.71,8.18,3.89c0.18,0.17,0.27,0.37,0.31,0.56c1.17,0.93,2.18,2.06,2.98,3.38
		c0.88,1.17,1.65,4.35-0.69,4.09c-0.7-0.19-0.99-0.96-1.3-1.54c-3.87-7.01-11.1-6.44-17.78-4.52c-2.37,0.56-3.5-4.5-7.12-5.95
		c-5.3-2.12-11.13,1.25-14.52,5.29c-0.83,1.1-2.57-0.22-1.7-1.31c3.5-4.23,8.89-7.34,14.52-6.68c1.37-1.61,8.75,3.11,9.45,4.9
		C300.96,188.04,301.97,187.78,302.99,187.61L302.99,187.61z M273.63,111.84c2.56,0.35,0.74-4.03,0.17-5.18
		c-1.28-2.52-3.96-4.3-6.82-4.17c-0.31,0.03-0.72,0.08-1.16,0.16c-2.06-4.7-7.75-6.94-12.63-5.59c-2.23,0.4-4.41,1.23-6.22,2.6
		c-1.19,0.93-5.68,5.6-2.61,6.3c0.54,0,1.01-0.42,1.07-0.96c1.71-4.03,6.11-5.86,10.25-6.13c-0.63,1.27,0.92,1.71,1.85,1.93
		c1.82,0.85,4.13,1.62,5.62,3.08c-0.25,0.32-0.36,0.7-0.24,1.17c0.37,0.71,0.86,0.73,1.39,0.53c0.03,0.08,0.06,0.16,0.09,0.25
		c0.27,0.99,1.65,1,2.01,0.16c1.27,1.3,5.54,2.49,6.37,4.58C272.8,111.13,273.06,111.68,273.63,111.84L273.63,111.84z
		 M270.36,105.85c-0.65-0.37-1.31-0.73-1.98-1.07c0.84,0.25,1.68,0.59,2.29,1.24C270.57,105.97,270.47,105.91,270.36,105.85
		L270.36,105.85z M297.29,138.78c-1.58-0.76-3.48-0.85-5.15-0.34c0.25,0.83,0.13,1.55-1.06,1.6c-0.53-0.07-0.79-0.47-0.99-0.9
		c-0.99-1.24-2.21-2.32-3.47-3.27c-2.99-1.9-7.29-2.25-9.97,0.37c-0.67,0.8-2.02,1.42-2.43,0.05c-1,1.02-0.59,3.06-1.97,3.09
		c-3.19-0.81,1.45-6.39,3.06-7.1c4.57-3.01,11.23-2.03,14.65,2.15c0.74-0.45,1.62-0.75,2.21-0.77c2.43,0.06,6.07,1.65,6.81,4.13
		C298.99,138.64,298.03,139.17,297.29,138.78L297.29,138.78z M212.01,130.87c-0.71,1.19-1.23,2.48-1.5,3.82
		c-0.02,1.37,2.12,1.4,2.14,0.03c0.29-1.21,0.97-2.29,1.61-3.34c2.1-3.12,5.92-5,9.7-5.44c0.1,0,0.19,0,0.29,0
		c-0.47,0.12-0.87,0.37-1.06,0.86c-0.23,0.85,0.58,1.48,1.37,1.47c1.73,0.18,3.48,0.28,5.18,0.68c1.16,0.54,2.59,0.01,2.13-1.46
		c0.79-0.98,3.15-1.73,2.33-3.27c2.6-0.87,5.64-1.44,8.32-0.66c0.65,0.26,1.27,0.6,1.84,1.02c1.61,2.32,3.86,0.7,2.29-0.78
		c-0.24-0.25-0.5-0.49-0.76-0.71c-0.06-0.23-0.22-0.45-0.49-0.61c-0.7-0.41-1.47-0.76-2.26-1c-4.07-1.58-9.21-0.74-12.64,1.82
		c-0.32,0.31-0.8,0.74-1.24,1.21c-1.84-1.03-3.9-1.07-5.93-0.7c-3.15,0.21-6.45,1.8-8.68,3.74
		C213.91,128.43,211.92,129.63,212.01,130.87L212.01,130.87z M183.4,184.54c2.8,1.48,0.64-4.4,6.87-10.42
		c3.6-4.82,8.88-3.4,8.56-5.47c-0.07-0.27-0.2-0.48-0.38-0.62c1.03-1.62,2.1-4.09,4.4-4.67c1.29-0.47,2.67-0.16,4-0.25
		c2.07-0.61,1.47-3.94,5.63-5.65c4.65-2.4,10.21-0.91,14.73,1.1c0.73,0.32,1.67-0.12,1.66-0.97c-0.18-1.34-2.06-1.39-3.07-1.93
		c0.27-1.25-1.37-1.73-2.19-2.32c-5.67-3.14-12.99-0.4-17.21,3.99c-1.35,2.11-3.92,2.25-5.72,3.85c-1.64,1.28-5.76,4.51-5.27,6.99
		c-1.1,0.37-2.17,0.9-2.71,1.13c-1.6-0.64-3.98,3.42-5.26,4.41C184.94,176.46,181.38,180.73,183.4,184.54L183.4,184.54z
		 M206.24,161.01c0.01,0,0.02,0,0.03,0c0.1-0.21,0.19-0.43,0.29-0.64c-0.15,0.15-0.3,0.28-0.47,0.41c-0.11,0.08-0.23,0.15-0.35,0.21
		C205.91,160.99,206.08,161,206.24,161.01L206.24,161.01z M300.67,208.3c-3.64-0.15-7.51-0.06-10.88-1.62
		c-2.72-1.25-2.02-4.78,0.7-5.49c2.87-1.67,3.79,2.37,1.06,1.88c-0.49,0.24-1.23,0.41-1.42,0.98c0-0.01,0-0.02,0-0.03
		c1.22,2.31,10.52,2.38,13.03,1.9c1.27-0.55,2.12,1.45,0.83,1.97C302.95,208.32,301.79,208.32,300.67,208.3L300.67,208.3z
		 M193.52,209.48c2.61,0.78,12.42-1.04,14.81-2.41c1.27-0.69,2.32-3.76,0.17-3.8c-2.01,0.85,0.47,2.2-3.82,2.87
		c-2.48,0.06-9.69,2.75-11.1,0.72c0,0.02,0,0.03,0,0.03c0,0.01,0,0.03,0,0.04c0-1.12,1.99-1.22,1.41-2.52
		C193.01,201.8,189.06,208.2,193.52,209.48L193.52,209.48z M174.62,248.61c-0.06-0.06-0.12-0.13-0.17-0.2
		C174.49,248.49,174.55,248.55,174.62,248.61L174.62,248.61z M364.22,310.06c-3.3-4.36-6.53-8.86-9.6-13.41
		c-3.37-5.54-7.17-10.94-12.49-14.79c-0.81-0.52-1.39-1.02-1.79-1.49c0.02-0.07,0.04-0.14,0.06-0.21c0.14-0.47,0.27-0.95,0.39-1.43
		c0.08-0.3,0.15-0.59,0.22-0.89c0.03,0.02,0.06,0.03,0.09,0.05c0.08-0.28,0.17-0.55,0.22-0.8c0.24-1.3,0.31-2.63,0.23-3.95
		c-0.14-1.79-0.55-3.55-1.12-5.25c-0.63-1.67-2.82-4.8,0.24-5.3c6.47-0.08,10.62-7.32,8.78-13.2c-0.06-0.47-0.15-0.95-0.28-1.4
		c-0.2-0.71-0.43-1.39-0.75-2.05c-0.27-0.57-0.61-1.12-0.96-1.64c-0.73-1.07-1.56-2.06-2.5-2.94c-0.03-0.03-0.06-0.06-0.09-0.08
		c-0.3-0.33-0.61-0.64-0.95-0.93c0.12-0.31,0.33-0.63,0.67-0.95c1.29-1.77,1.14-4.35-0.17-6.06c-1.39-1.32-3.86-2.16-1.55-4.17
		c2.95-4.53-1.74-10.57-5.9-12.59c-1.65-1.29-6.22-1.02-6.24-2.66c1.46-6.28-3.91-7.53-1.87-10.49c1.88-3.22,1-7.04-1.17-9.87
		c-0.68,0.06-1.43-0.54-1.18-1.33c-0.55-0.53-1.14-1-1.77-1.39c-1.01-0.41-0.65-2.1,0.46-2.04c0.8,0.36,1.55,0.82,2.23,1.37
		c0.09-0.21,0.17-0.42,0.25-0.64c1.49-3.53,1.1-14.36,5.74-14.87c5.32,2.65,9.61,7.72,11.53,13.37c1.49,3.45,1.32,7.3,2.17,10.85
		c5.24,0.77,9.7,4.07,12.85,8.3c2.79,3.71,3.18,8.38,4.37,12.68c6.7,3.99,7.8,6.34,6.72,13.94c6.7,2.04,10.23,9.29,10.33,15.93
		c0.22,6.23-2.39,11.87-5.24,17.2c0,0,0.02-0.02,0.02-0.02c4.78,4.81,7.42,11.3,6.76,18.14c-0.2,7.47-4.33,13.95-11,17.29
		c-2.24,0.56-1.68,2.94-2.36,4.67c-0.39,1.74-1.97,3.66-3.72,3.66C365.31,310.68,364.76,310.5,364.22,310.06L364.22,310.06z
		 M325.06,190.95c0.03,0,0.06,0,0.09,0.01c-0.13-0.01-0.26-0.04-0.38-0.09C324.86,190.91,324.96,190.93,325.06,190.95L325.06,190.95
		z M314.69,162.48c0.03-1.2-0.17-2.37-0.48-3.53c-0.32-1.21-0.87-2.41-1.51-3.49c-0.7-1.17-1.52-2.29-2.5-3.24
		c-0.48-0.46-0.98-0.89-1.5-1.3c-0.44-0.35-0.89-0.66-1.37-0.94c0.16-2.09,1.45-4.06,1.68-6.2c0.6-3.07,0.31-6.27-0.64-9.24
		c-1.58-4.43-5.65-7.61-10.1-8.83c-1.85-0.75-0.27-4.43-0.75-6.24c-0.33-5.31-3.53-10.22-8.43-12.4c-1.07-0.67-4.1-0.81-2.62-2.61
		c-0.11-0.1-0.2-0.23-0.27-0.39c-0.35-1.64,0.07-3.43-0.65-5.04c-1.85-5.39-7.4-9.51-13.17-9.12c-1.12,1.64-2.75,0.48-2.62-0.69
		c0.09-0.78,0.97-1.55,3.31-1.5c0.97-1.12,2.84-0.7,4.18-0.92c3.38-0.25,6.92,0.21,9.87,1.98c2.48,1.35,4.38,3.7,4.8,6.53
		c0.2,1.23,0.72,2.87-0.2,3.89c0.13,1.68,0.61,5.38-1.26,6.16c0.65,0.38,1.28,0.79,1.86,1.08c4.35,1.47,7.22,5.43,9.54,9.15
		c0.74,0.11,1.53,0.07,2.33,0.03c1.32-0.07,2.69-0.14,3.92,0.48c5.34,1.86,8.31,7.71,7.17,13.15c10.66,2.07,17.93,15.05,13.32,25.08
		c-1.08,2.05-2.96,3.52-4.82,4.84c-1.62,1.09-2.95,2.62-4.73,3.48c-0.37,0.16-0.75,0.12-1.13,0.08c-0.32-0.03-0.64-0.06-0.95,0.02
		c-0.83,0.14-1.54,0.7-2.34,0.92C314.66,163.29,314.68,162.88,314.69,162.48L314.69,162.48z M288.42,104.42
		c0.21,0.06,0.43,0.14,0.64,0.23c-0.04-0.15-0.05-0.31-0.03-0.47c-0.04-0.02-0.08-0.03-0.13-0.06c-0.02,0-0.05,0-0.07,0
		c-0.05,0-0.11,0-0.16-0.01C288.6,104.23,288.52,104.33,288.42,104.42L288.42,104.42z M281.76,90.66c0-0.05,0.01-0.1,0.02-0.14
		c-0.2-0.09-0.4-0.18-0.61-0.26C281.37,90.39,281.56,90.52,281.76,90.66L281.76,90.66z M285.02,90.12c0.16,0.15,0.31,0.31,0.46,0.46
		c0.05-0.06,0.1-0.11,0.16-0.16c-0.1-0.05-0.2-0.11-0.29-0.16C285.24,90.22,285.13,90.17,285.02,90.12
		C285.02,90.12,285.02,90.12,285.02,90.12z"/>
	<path class="st2" d="M215.91,177.91c-5.11-0.77-3.42-6.7-0.34-8.96c2.47-2.39,6.03-3.58,9.44-3.14c6.57,0.06,11.4,10,3.21,10.99
		C224.1,176.92,220.03,178,215.91,177.91L215.91,177.91z M334.4,256.56c-3.32-0.55-2.51-4.32-0.98-6.3
		c0.97-1.78,1.08-4.49,3.39-5.08C344.36,244.92,342,257.4,334.4,256.56L334.4,256.56z M313.63,273.09
		c12.93,3.48,19.37-18.91,7.2-18.16c-3.63,1.09-5.02,5.14-7.21,7.88C310.4,265.88,306.9,272.06,313.63,273.09L313.63,273.09z
		 M187.17,296.31c-2.89-0.89-5.34-4.88-4.24-7.82c1.49-4.63,5.75-2.2,7.23,1.1C192.97,292.55,191.76,297.32,187.17,296.31
		L187.17,296.31z M185.43,270.96c-4,0.03-8.6-7.94-3.68-9.74C187.4,255.39,195.07,272.06,185.43,270.96L185.43,270.96z
		 M207.02,291.05c12.03,0.19,8.18-9.97,0.44-13.84c-2.99-2.56-9.2-5.96-11.38-0.8c-3.08,1.62-1.53,6.21-0.4,8.71
		C197.76,289.3,202.57,291.13,207.02,291.05L207.02,291.05z M320.89,287.53c-0.41-0.06-0.82-0.18-1.2-0.36
		c-0.21-0.1-0.39-0.21-0.58-0.34c-2.75-0.31-3.1-3.98-0.91-5.32c3.14-2.25,12.42-4.08,10.3,2.53
		C327.1,286.62,323.71,287.82,320.89,287.53L320.89,287.53z M295.4,300.39c-1.86-0.34-4-0.86-5.06-2.57
		c-1.54-3.13-0.25-5.15,3.24-5.15c4.31-0.82,7.27-5.32,11.82-5.16c4.87,0.47,4.47,6.27,1.51,8.89
		C303.98,299.42,299.58,301.04,295.4,300.39L295.4,300.39z M268.88,291.43c-3.98-0.04-7.57-4.83-3.17-7.31
		c3.78-1.33,10-3.92,12.72,0.34C279.76,289.33,272.72,291.78,268.88,291.43L268.88,291.43z M245.49,306.28
		c-1.2-0.33-2.48-0.99-3.2-2c-5.56-1.87-5.69-8.53,1.11-6.97c4.09,0.33,7.46-2.46,11.34-3.19c4.24-1.08,7.51,2.86,5.45,6.78
		C257.7,306.06,250.65,307.48,245.49,306.28L245.49,306.28z M258.4,191.52c-6.02-2.85,1.68-11.19,6.11-8.13
		c3.36-0.1,7.32,4.45,4.18,7.21c-1.22,0.97-2.84,0.76-4.29,0.84C262.42,191.52,260.33,192.21,258.4,191.52L258.4,191.52z
		 M226.29,113.48c-4.44-3.04,1.29-11.1,5.69-10.83c3.66-0.39,7.5,4.46,3.96,7.17C233,111.36,229.86,115,226.29,113.48L226.29,113.48
		z M247.21,94.06c-9.53,0.06-4.32-13.9,3.7-13.54c5.61-1.01,11.63,5.63,7.25,10.46c-1,0.93-2.34,1.21-3.64,1.39
		C252.04,92.74,249.74,94.31,247.21,94.06L247.21,94.06z M291.14,161.66c-3.11-1.64-2.21-6.29,1.14-6.98
		c2.42-0.87,6.4,0.82,4.67,3.79C298.11,161.97,293.58,163.6,291.14,161.66L291.14,161.66z M271.5,175.67
		c4.08,1.95,8.55-1.71,13.14-0.08c2.64,0.56,5.58-0.91,6.21-3.64c0.94-3.69-2.13-6.96-5.13-8.63c-5.5-3.46-14.15-0.33-15.6,6.14
		C269.68,171.61,269.21,174.31,271.5,175.67L271.5,175.67z M255.57,130.93c-1.73-0.84-2.28-3.06-1.37-4.7
		c1.02-1.92,3.53-2.37,5.51-2.66c3.74-0.62,10.21,2.93,6.21,6.89C264.19,131.66,257.43,131.97,255.57,130.93L255.57,130.93z
		 M237.78,145.59c-5.07-1.9-1.89-8.62,1.42-10.78c4.13-2.81,9.97-2.56,14.51-0.86c4.51,1.37,7.02,9.13,1.56,10.89
		c-2.74,0.52-5.52-0.64-8.31-0.26C243.89,144.67,240.86,146.18,237.78,145.59L237.78,145.59z M202.73,190.69
		c-5.17-2.61,0.77-9.69,5.05-7.8c3.23-0.13,5.52,4.22,2.34,6.07C207.82,189.83,205.24,191.5,202.73,190.69z"/>
	<g>
		<path class="st3" d="M165.6,182.05c0.72,1.87,0.9,3.62-1.59,3.86c-3.86,0.5-6.46,2.99-7.6,6.66c-0.71,1.49-0.35,3.68-2.02,4.52
			c-2.46,0.98-4.49,1.63-5.72,4.17c0.12,1.42-1.96,1.95-2.52,0.6c-0.92-2.07-5.88-18.99,0.7-13.06c0.44-3.63-0.12-7.28-0.71-10.86
			c-0.27-1.45-1.39-4.05,0.89-4.34c0-2.72-0.45-5.48-1.57-7.97c-0.35-0.91-1.32-1.53-1.4-2.53c0.48-2.6,2.92-0.74,4.09,0.24
			c2.43,1.8,4.93,3.57,6.96,5.83c0.89-0.52,1.61-1.33,2.57-1.73c2.65-0.87,5.11,1.7,6.3,3.8
			C164.69,174.81,164.32,178.57,165.6,182.05z"/>
		<path class="st3" d="M335.46,151.86c2.43,1.5-2.17,12.54-2.83,15.09c3.82-0.07,2.21,5.62,1.41,7.83
			c-1.14,2.67-3.03,5.17-4.59,7.55c0.22,0.1,0.44,0.21,0.63,0.37c0.01,0.01,0.02,0.02,0.03,0.02c0.44-0.59,1.46-0.58,1.82,0.09
			c0.43,0.88-0.13,1.83-0.56,2.59c-2.8,3.9-6.44,7.92-10.96,9.65c-0.2-0.05-0.37-0.13-0.5-0.21c-0.2,0.05-0.46,0.06-0.77-0.01
			c-1.27-0.8-0.6-2.77-1.65-3.85c-3.03-4.26-9.13-5.66-13.93-3.89c-0.8,0.28-1.55,0.64-2.31,1.01c-0.24,0.11-0.47,0.12-0.66,0.07
			c-0.47,0.29-1.13,0.28-1.49-0.33c-1.93-3.49-0.07-8.53,1.56-11.87c1.34-2.23,6.29-12.51,7.54-5.14c1.72-2.2,3.62-4.24,5.53-6.28
			c1.32-1.12,3.86-4.98,5.37-2.29c3.12-3.66,7.36-5.91,11.57-8.09C332.09,153.76,334.32,151.37,335.46,151.86z"/>
		<path class="st3" d="M170.55,324.63c0.63,1.5,0.21,3.31,0.34,4.91c-0.11,2.04-2.29,3.2-3.48,4.67c-4.72,4.7-9,9.99-14.8,13.42
			c-5.68,3.42-12.07,6.38-18.85,5.74c-1.6,0.08-4.35-0.57-3.18-2.7c-5.58,1.8-11.74,2.74-17.49,1.23c-3.95-0.93-2.51-2.28-0.98-4.8
			c-4.21-0.55-8.46,0.5-12.7,0.23c-2.5-0.05-21.98-0.25-16.78-5.4c6.99-3.42,13.55-7.57,19.14-13.03c-1.76-0.27-1.49-2.07-0.1-2.71
			c1.2-1.02,2.19-2.26,3.24-3.43c3.12-3.89,7.17-6.8,11.84-8.53c-6.6-2.35,2.95-4.88,5.07-6.32c1.91-1,3.89-1.86,5.99-2.35
			c1.65-0.5,13.92-3.3,11.15,0.92c1.7,9.06,10.81,14.82,19.14,17.16c2.34,0.51,4.72,0.59,7.1,0.59
			C166.92,324.35,169.2,323.2,170.55,324.63z"/>
		<path class="st3" d="M214.37,355.96c2.6-1.22,4.72-3.09,6.69-5.14c-2.21,1.98-4.79,4.04-7,5.27
			C214.17,356.04,214.28,356,214.37,355.96L214.37,355.96z M225.83,346.47c-0.01-0.12-0.02-0.25-0.03-0.38
			c-0.16,0.19-0.36,0.43-0.61,0.7C225.41,346.66,225.62,346.55,225.83,346.47L225.83,346.47z M237.95,318.74
			c2.59,1.62,12.13-0.93,10.21,4.05c-1.44,4.54-3.17,9.24-6.66,12.62c-1.25,1.27-3.36,3.22-5.16,1.85
			c-1.09,2.74-2.27,5.48-4.16,7.77c-0.41,0.58-1.15,1.32-1.98,1.96c0.33,0.07,0.63,0.25,0.85,0.59c1.83,1.64,1.25,3.41,1.22,5.57
			c-0.05,2.91-0.31,5.82-0.39,8.73c-0.19,7.04-1.69,14.15-5.62,20.09c-1.29,1.62-3.07,5.03-5.48,4.41c-0.76-0.37-0.93-1.26-1.3-1.95
			c-0.01-0.03-0.02-0.06-0.03-0.09c-0.08,0.25-0.16,0.49-0.24,0.74c-1.7,5.1-4.17,10.01-7.3,14.38
			c-1.87,2.74-14.03,15.21-13.35,5.64c-2.15,2.95-4.6,5.7-7.31,8.15c-1.99,1.67-14.33,11.4-13.8,4.42
			c-4.68,4.59-9.7,8.88-15.7,11.64c-2.21,0.97-6.94,3.86-9.17,2.79c0,0,0,0,0-0.01c0,0-0.01,0-0.01,0
			c-0.86-0.36-0.69-1.31-0.35-1.99c0.72-2.12,1.21-4.31,1.38-6.55c0.2-4.25-0.81-8.57-0.95-12.79c-2.82,0.44-1.27-3.21-1.14-4.73
			c0.5-4.56,0.71-9.18,0.62-13.77c-6.42,4.17-1.68-8.32-0.98-10.72c1.41-3.38,2.91-6.71,3.72-10.27c-1.02,0.69-3.09,2.14-3.57,0.17
			c0.13-1.44,0.62-2.84,0.88-4.27c0.91-4.09,2.82-7.83,4.65-11.57c3.41-6.45,7.54-12.56,13-17.45c0.68-0.57,1.39-1.16,2.2-1.53
			c0.92-0.53,2.05,0.44,1.65,1.35c0.01,0.02,0.03,0.04,0.04,0.07c1.31,1.89,2.88,3.57,4.53,5.04c6.53,5.64,15.74,8.44,24.27,7.13
			c2.32-0.52,5.47-1.85,6.76,0.05c-0.04-3.88-0.01-7.85,1.14-11.58c-2.75,0.95-2.39-2.33-2.36-4.06c0.1-3.28,0.51-6.59,1.73-9.66
			c-5.42,2.96-2.22-5.89-1.61-8.2c0.83-1.99,1.56-5.66,3.95-6.2c0.62,0,1.13,0.56,1.07,1.18c3.59,4.58,10.1,4.81,15.46,5.06
			C233.59,316.48,233.63,316.78,237.95,318.74z"/>
		<path class="st3" d="M344.34,405.82c0.41,2.71,0.35,5.46,0.04,8.18c0.01,1.14-0.66,2.69-2.04,2.08c-0.43-0.21-0.89-0.36-1.35-0.48
			c0.53,2.41,1.03,4.82,1.62,7.22c0.25,2,3.9,15.29-0.94,12.75c-6.26-4.14-9.18-6.61-17.02-7.56c0.44,0.96,0.85,2.57-0.49,2.97
			c-1.69,0.05-3.41-1.53-5.02-2.06c-4.95-2.1-9.77-4.48-14.79-6.4c-0.49-0.17-1.11-0.52-1.51-0.97c-0.31-0.13-0.58-0.24-0.8-0.29
			c0.31,1.52,3.09,4.98,0.4,5.49c-0.98-0.07-1.73-0.83-2.58-1.25c-3.27-1.69-6.61-3.11-9.84-4.79
			c-7.56-4.45-14.15-10.65-19.07-17.91c-0.44,3.58-3.17,0.82-4.55-0.42c-1.58-1.34-3.22-2.62-4.67-4.11
			c-3.26-3.35-5.77-7.31-8.15-11.29c-0.45,1.69-0.77,7.48-3.47,4.42c-3.89-4.4-6.66-9.69-8.74-15.16c-1.59-3.78-1.5-7.89-2.56-11.78
			c-0.18-1.39-1.07-4.84-1.12-7.16c-0.17-0.35-0.13-0.71,0.05-0.99c0.06-0.45,0.18-0.81,0.39-1.04c0.73-0.62,1.91,0.11,1.72,1.02
			c4.87,2.77,10.37,4.12,15.97,4.17c7.15-0.18,14.55-1.7,20.44-5.9c2.13-2.17,2.29-2.74,5.32-1.32c4.91,2.08,10.68,2.65,15.86,1.35
			c5.17-1.42,9.21-4.98,13.16-8.42c0.82-0.7,1.93-0.4,2.74,0.16c1.07,0.55,2.22,0.95,3.38,1.25c3.1,0.55,6.53-0.01,9.15-1.79
			c0.23-0.17,0.47-0.23,0.69-0.21c0.29-0.15,0.7-0.15,1.18,0.11c2.37,1.99,4.49,4.31,6.13,6.94c1.01,1.67,6.95,10.47,1.94,9.76
			c1.05,3.69,3.25,6.75,4.62,10.29c1.59,4.02,2.76,8.22,3.27,12.51c0.63,3.3-0.98,3.48-3.5,2.06
			C342.49,393.22,343.28,399.59,344.34,405.82z"/>
		<path class="st3" d="M418.07,346.42c1.23,1.71-1,2.14-2.27,2.27c-4.75,1.05-9.15,3.28-13.93,4.27c0.41,0.92-0.46,1.8-1.37,1.86
			c-1.59,0.34-2.96,0.61-4.47,0.89c-5.53,1.42-11.21,2.15-16.91,1.63c0.8,0.78,2.58,1.92,1.45,3.13c-1.21,0.75-2.87,0.23-4.24,0.3
			c-5.31,0.18-10.64-0.33-15.69-2.08c-3.43-1.15-6.48-3.15-9.74-4.68c0.29,1.01,1.34,2.15,0.66,3.18c-0.57,0.71-1.49,0.33-2.15-0.05
			c-3.73-1.91-7.22-4.28-10.47-6.92c-1.31-1.25-8.33-7.17-6.87-8.8c0.4-0.51,1.14-0.5,1.63-0.13c1.97-0.45,3.96-0.84,5.76-1.82
			c1.09-0.58,2.31-1.04,3.24-1.87c0.35-0.34,0.54-0.87,1-1.07c1.1-1.84,1.19-3.96,1.46-6c-0.17-5.39,2.73-1.34,9.97-6.24
			c5.33-3.82,4.79-6.99,6.68-8.12c-2.67-0.3-5.33-1.02-7.8-1.82c0.45,1.11-0.13,2.52-1.5,2.22c-1.97-0.57-3.95-1.13-5.78-2.08
			c-2.66-1.35-5.07-3.17-7.8-4.4c-0.3,4.14-1.5,3.94-4.47,1.66c-3.02-2.14-6.47-3.8-8.65-6.92c-0.89-1.2-1.83-2.52-1.97-4.04
			c0.19-1.08,1.46-1.64,1.66-2.77c0.68-1.58,0.32-3.34,0.8-4.95c1.09-2.5,7.99-2.78,10.31-5.57c1.92-1.82,2.07-5.52,4.77-6.43
			c1.7-0.11,3.36,0.6,5,0.97c1.5,0.4,3,0.86,4.33,1.67c2.26,1.02,6.13,4.53,1.5,5.27c2.39,1.37,4.69,2.9,6.63,4.87
			c1.25,1.32,5.17,4.34,2.23,5.8c2.14,3.74,4.73,7.21,6.56,11.12c0.47,1.28,2.73,3.23,1.75,4.48c2.43-0.15,4.07,0.15,8.33,2.08
			c2.27,1.03,13.2,5.78,11.4,8.78c1.52,1.96,18.89,10.61,14.44,12.86c3.24,1.82,6.55,3.51,9.95,5.01
			C415.05,344.76,416.76,345.31,418.07,346.42z"/>
		<path class="st4" d="M222.17,349.83c0.39-0.42,0.76-0.93,1.14-1.44c-3.89,4.23-9.7,9.81-13.22,8.84
			c-0.06-0.04-0.12-0.08-0.17-0.12c0.16,0.59,0.39,1.15,0.73,1.66C215.47,357.76,219.1,353.46,222.17,349.83L222.17,349.83z
			 M226.54,345.7c-0.08-0.21-0.15-0.44-0.22-0.71c-0.33,0.38-0.74,0.85-1.21,1.38C225.54,346.05,226.01,345.81,226.54,345.7
			L226.54,345.7z M246.29,327.05c0.05,0.34-0.15,0.6-0.5,0.81c-0.77,2.09-1.83,4.05-3.24,5.78c-1.44,1.48-3.67,4.81-5.99,3.37
			c-1.46,3.23-3.33,6.19-5.96,8.57c-0.49,0.43-0.97,0.81-1.42,1.07c2.49,1.32,3.23,2.99,3.08,6.69c0.93,7.54-0.17,15.07-2.7,22.21
			c-1.57,4.01-3.93,7.79-7.09,10.74c-1.55,1.55-2.24,0.18-2.97-1.23c-2.77,5.96-5.39,12.18-10,16.99c-2.41,2.4-5.08,5.23-8.5,6
			c-1.83-0.09-1.04-2.5-1.86-3.58c-0.01,0-0.02,0.01-0.03,0.01c-3.5,3.66-6.34,8.04-10.45,11.13c-2.22,1.62-10.38,7.05-11.07,1.91
			c-7.27,5.93-14.63,13.16-24.23,14.77c-3.78-0.99,2.24-2.96,3.3-3.59c5-2.46,9.6-5.41,13.7-9.12c2.93-2.65,5.85-5.32,8.62-8.14
			c3.56-3.72,3.07-1.99,4.18,1.68c5.25-3.36,9.72-7.83,13.9-12.43c3.74-3.64,4.43-8.83,7.45-1.02c4.08-4.4,6.58-9.94,8.6-15.52
			c0.75-2.17,1.36-4.38,1.83-6.6c0.53-3.44,1.33-3.69,3.52-0.97c1.76-4.73,1.48-9.93,0.91-14.86c-0.02-0.06-0.03-0.11-0.04-0.16
			c-3.65,0.8-7.41,1.11-11.14,0.99c-6.71-0.15-13.53-0.95-19.85-3.1c-1.51,2.36-2.6,4.98-3.96,7.43
			c-2.96,5.43-6.46,10.58-8.96,16.25c-1.56,4-3.05,8.05-4.03,12.24c-0.51,1.01-0.33,3.86-1.68,3.88c-1.2-0.52,0.02-3.55-0.07-4.69
			c0.73-5.48,1.85-10.9,3.12-16.29c1.98-7.61,3.86-15.54,7.5-22.54c-1.15-0.69-2.28-1.45-3.36-2.29c-3.33-2.87-7.29-6.08-9-10.23
			c-0.8,0.06-0.86-0.56-0.49-1.44c-0.1-0.37-0.18-0.74-0.24-1.13c0.17-0.45,0.72-0.51,1.04-0.27c1.59-2.32,4.56-4.97,5.36-3.36
			c2.81,6.59,10.27,11.41,17.1,12.95c4.62,0.92,9.3,0.47,13.87-0.42c1.61-0.15,4.72-1.62,4.95,0.96c0.16,1.36,0.07,2.89,0.13,4.36
			c0.73-1.27,2.4-2.6,2.99-3.46c1.38-1.57,2.68-3.21,3.85-4.94c1.17-1.5,3.03-6.64,4.25-2.22c2.93-2.56,5.68-5.47,7.44-8.97
			c1.17-2.77,1.95-5.99,3.81-1.22c1.01-2.06,1.91-4.22,2.37-6.47c0.08-0.3,0.1-0.72,0.21-1.06c-1.4-0.82-2.71-1.82-3.92-2.89
			c-7.34,2.27-16-0.8-20.62-6.84c-0.43-0.07-0.64-0.45-0.69-0.96c-0.11-0.17-0.23-0.35-0.33-0.53c-0.01-0.28,0.18-0.51,0.42-0.6
			c0.25-1.23,0.94-2.58,1.57-2.82c1.53-1.23,2.66-0.12,3.88,0.86c2.31,1.42,4.55,3.12,7.27,3.63c3.86,0.69,7.78,0.73,11.68,0.89
			c1.11,0.13,2.07,0.84,3.03,1.32c1.08,0.56,2.24,0.91,3.41,1.18c1.56,0.26,3.15,0.4,4.73,0.34c0.8-0.03,2.12-0.38,2.3,0.73
			c-0.13,2.02-0.49,4.04-1.1,5.99C246.21,326.86,246.26,326.95,246.29,327.05z"/>
		<path class="st4" d="M170.04,324.27c0.78,1.67,0.88,3.71,1.07,5.54c-0.05,1.31-1.18,2.21-1.89,3.21c-1.72,2.21-2.86,3.6-4.83,4.08
			c-2.23,3.87-6.6,7.12-9.92,9.46c-6.79,3.5-14.26,7.42-22.07,7.09c-1.12-0.54-0.82-1.95-1.12-2.93c-0.02,0-0.03-0.01-0.05-0.01
			c-0.03-0.01-0.06-0.01-0.09-0.02c0.03,0.01,0.06,0.01,0.09,0.02c-5,1.09-10.07,2.05-15.25,1.75c-3.83-0.03-5.15-0.1-4.33-4.36
			c-4.98-0.25-10.01,0.32-14.99-0.46c-1.1-0.39-11.75-0.05-9.4-2.14c-1.5-0.26-2.99-0.66-4.51-0.74c-0.85,0.01-0.85-1.34,0.02-1.31
			c5.37,0.76,10.73,1.95,16.2,1.45c4.11-0.26,8.19-0.82,12.22-1.67c2.6-0.22,9.37-3.66,7.31,1.8c0,0,0,0,0,0
			c4.39,1.06,9.01-0.56,13.21-1.84c1.71-0.39,3.46-1.84,5.23-1.42c1.95,1.97-2.08,3.54,4.53,2.62c5.71-1.33,10.96-4.11,15.6-7.64
			c-4.53-0.92-8.76-3.13-12.86-5.26c-3.22-1.98-6.25-4.47-8.83-7.34c-9.65,4.96-19.32,10.15-29.41,14.06
			c-0.96,0.26-2.14,1.04-3.09,0.46c-0.66-0.53,0.16-1.64,0.85-1.12c8.27-2.31,14.79-8.12,21.07-13.68c2.1-1.78,4.3-3.58,6.82-4.7
			c-0.92-1.49-1.72-3.04-2.36-4.65c-0.74-1.14-2.26-10.89,0.36-9.37c14.33-3.88,6.5,3.91,14.99,10.56
			c4.23,4.15,9.41,7.09,15.27,8.15C162.82,324.86,168.3,322.97,170.04,324.27z"/>
		<path class="st4" d="M339.69,429.7c0.92,0.96,6.09,7.1,2.39,6.61c-6.17-3.09-12.2-7.03-18.91-8.81c2.75,4.32-0.63,2.86-3.28,1.75
			c-5.66-2.27-11.07-5.14-16.64-7.6c0.55,3.03,1.81,6.52-2.98,4.67c-4.77-2.09-9.18-4.91-13.44-7.88
			c-6.22-3.95-10.67-9.85-15.57-15.16c-1.54,4.47-5.49-0.19-7.24-2.14c-2.65-3.02-5.26-6.08-7.59-9.37
			c-5.49-8.37-2.23-0.09-5.48,0.95c-2.94,0.42-9.77-16.21-10.93-23.45c-0.53,0.44-1.12-0.26-1.29-0.81
			c-0.07-0.03-0.13-0.05-0.2-0.08c-0.05-0.02-0.1-0.03-0.14-0.04c0.03,0.01,0.05,0.01,0.08,0.02c0.02,0,0.04,0,0.06,0
			c-0.35-0.03-0.63-0.29-0.63-0.65c0-0.24,0.14-0.47,0.35-0.58c-0.6-2.26-2.62-14.91,2.53-10.43c5.91,3.8,14.21,2.72,20.93,2.29
			c11.08-0.71,14.09-8.16,18.24-5.56c2.92,1.55,6.25,1.9,9.51,1.87c5.37,0.11,10.64-1.52,15.08-4.47c2.33-1.43,4.26-3.71,6.96-4.43
			c6.52,1.53,8.57,1.91,14.76-1.32c1.76-0.18,2.74,1.89,4.07,2.77c1.28,0.95,2.17,2.23,0.66,3.5c-4.71,5.2-11.97,4.2-18.24,4.14
			c-3.22,3.75-6.45,6.37-9.86,8.09c11.86,10.23,17.73,25.94,22.24,40.62c0.91,2.79,2.1,5.47,3.4,8.09c0.76,0.78,0.11,2.29-0.86,1.18
			c-6.21-11.99-10.83-24.92-18.62-36.03c-3.27-4.49-7.68-7.93-11.5-11.93c-4.99,1.18-10.46,0.88-16.86-0.37
			c-5.99,5.34-13.95,7.99-21.99,7.72c-2.34,0.02-4.69-0.11-7.01-0.41c1.61,5.19,4.46,9.97,8.41,13.72c1.67-9.03,2.47-3.98,4.65,1
			c2.49,5.04,6.76,8.8,10.71,12.69c-0.01-1.06-0.42-4.52,1.49-3.13c1.36,2.19,2.71,4.4,4.43,6.34c4.1,4.77,8.68,9.15,13.77,12.86
			c-1.52-10.81,2.69-3.31,8.76-0.87c3.09,1.76,6.56,2.53,9.9,3.64c2.82,0.96,5.42,2.43,8.11,3.66c0.07-1.04-0.86-2.88,0.96-2.76
			c3.61,0.39,6.99,2.26,9.92,4.28C335.28,425.61,337.58,427.55,339.69,429.7z"/>
		<path class="st4" d="M371.94,315c1.76,0.13,0.7,2.44,0.33,3.44c-1.64,4.09-5.93,6.02-9.91,7.15c-1.34,0.68-0.92,2.68-1.78,3.79
			c-2,3.32-5.88,4.73-9.25,6.22c-1.5,6.17-6.37,11.37-12.96,11.95c0.02,0.47-0.53,0.8-0.95,0.58c-0.32-0.16-0.63-0.35-0.92-0.56
			c-0.59,0.08-1.42-0.2-1.12-0.94c-7.6-8.11,2.13-4.18,6.55-9.32c3.31-2.83,2.11-7.41,4.59-9.92c2.93-0.87,6-1.52,8.39-3.66
			C363.21,316.59,359.99,315.92,371.94,315z"/>
		<path class="st4" d="M393.58,344.52c-5.3-3.08-10.72-6-16.44-8.22c-0.6,1.13-2.11-0.22-3.03-0.31c-3.88-1.23-7.82-2.31-11.82-3.06
			c0.03,0,0.06,0.01,0.08,0.01c-0.89-0.16-1.76-0.31-2.64-0.45c-0.8-0.27-2.55,0.02-2.52-1.18c-0.8-0.29-2.37-0.07-2.53-1.15
			c-0.35-0.45,0.08-1.16,0.65-1.03c2.03-0.04,4.08-0.19,6.11,0.02c3.5,0.34,6.84,1.53,10.12,2.76c5.06,1.96,9.86,4.54,14.67,7.04
			c2.71,1.39,5.37,2.87,7.98,4.43C394.81,343.81,394.26,344.82,393.58,344.52z"/>
		<path class="st4" d="M391.35,343.49c-9.07-6.02-18.81-11.98-29.87-13.07c-1.67-0.14-3.34-0.33-5.01-0.19
			c-0.83,0.13-1.04-1.19-0.19-1.3c10.16-0.45,19.96,3.63,28.5,8.81c2.45,1.47,4.82,3.07,7.21,4.61
			C392.72,342.76,392.09,343.92,391.35,343.49z"/>
		<path class="st4" d="M335.48,151.11c2.66-0.84-1.69,14.39-2.45,15.65c3.76,0.38,1.76,5.3,1.25,7.64
			c-0.85,2.96-2.31,5.72-4.56,7.85c5.47,2.26-6.71,12.68-9.83,12.49c-1.67-0.81-1.64-3.29-2.93-4.56c-1.05-1.6-3.14-2.2-4.11-3.77
			c-0.03,0.07-0.06,0.14-0.07,0.14c-0.1,0.22-0.17,0.44-0.21,0.68c-0.31,0.86-1.56,0.31-1.24-0.51c1.42-3.74,3.88-7.23,6.87-9.82
			c2.87-2.96,5.44-6.18,7.55-9.7C328.64,161.71,330.6,155.21,335.48,151.11z"/>
		<path class="st4" d="M156.17,181.54c3.68,9.31,2.06,6.5-1.89,14.73c-2.07,1.5-4.8,2.32-6.06,4.75c-0.49,0.65-0.57,2.39-1.72,1.85
			c-1.51-3.31-1.59-7.36-2.12-10.98c-0.2-2.57-1.17-6.33,2.41-2.91c0.13-4.21-0.64-8.42-0.74-12.63c-0.06-1.26-0.74-4.38,1.53-3.15
			c0.12-3.27-1.47-6.29-2.51-9.29c-0.6-0.48-1.84-1.74-0.5-2.09c1.82,1.08,3.29,3.17,4.69,4.81
			C152.84,170.91,154.12,176.45,156.17,181.54z"/>
		<path class="st4" d="M356.68,307.34c0.92,0.73-0.06,1.83-0.97,1.13c-5.33-3.1-10.36-6.92-16.37-8.6
			c-1.17-0.38-2.37-0.54-3.57-0.69c-0.05,0.09-0.1,0.18-0.16,0.27c-1.68,3.6-5.8,5.9-9.75,5.39c-1.51,0.01-1.51-1.59-1.57-2.72
			c-0.39-3.14,2.5-5.47,2.79-8.52c1.58-2.19,5.04-1.62,7.02-3.43c1.88-1.41,3.3-3.33,4.54-5.3c0.49-1,1.08-2.21,1.93-2.97
			c-0.28-0.52,0.27-1.07,0.85-0.98c0.29,0,0.47,0.12,0.57,0.3c0.34-0.05,0.71-0.02,1.11,0.09c-0.2-0.52,0.12-1.19,0.74-1.06
			c0.93,0.28,1.12,3.93,0.84,4.8c-0.96,3.64-3.48,7.45-7.29,8.41c-0.04,0.09-0.08,0.19-0.11,0.28c3.43,1.2,6.59,3.11,9.6,5.13
			C350.26,301.55,353.59,304.33,356.68,307.34z"/>
		<path class="st5" d="M134.98,328.41c2.54,0.41,2.22,3.52,0.98,5.12c-2.02,3.46-10.82,6.86-14.27,4.5
			c-3.12-3.77,5.04-4.83,7.04-6.87C130.74,330.25,132.64,326.38,134.98,328.41z"/>
		<path class="st5" d="M192.13,367.88c2.53,0.15,3.85,2.95,3.19,5.21c-0.95,2.87-3.33,5.55-4.51,8.16
			c-2.06,2.92-6.56,19.5-11.46,13.91c-2.44-4.18,3.64-18.61,6.37-22.58C187.25,370.46,189.2,367.72,192.13,367.88z"/>
		<path class="st5" d="M200.23,374.3c3.69,0.35,2.3,4.54,0.73,6.48c-1.03,1.65-2.7,3.88-4.91,2.98c-2.24-1.02-1.5-3.85-0.25-5.38
			C196.31,376.41,198.05,374.32,200.23,374.3z"/>
		<path class="st5" d="M285.25,379c2.54,2.35,2.7,7.97-1.98,6.7c-1.85-1-7.29-3.62-6.44-6.11C276.35,374.07,283.2,375.98,285.25,379
			z"/>
		<path class="st5" d="M307.73,379.55c2.32,2.32,14.77,24.43,5.37,21.73c-6.06-5.01-9.29-12.79-15.29-17.95
			c-2.75-2.96-6.89-4.18-9.59-7.07c-1.65-3.29,2.62-5.2,5.34-4.47C297.93,368.76,305.07,376.36,307.73,379.55z"/>
		<path class="st5" d="M380.35,341.62c3.2,2.63,0.32,5.95-3.16,4.65c-5.56-2.12-11.49-2.52-17.37-3.05
			c-2.02,1.32-4.48-1.47-5.07-3.26c0.03-5.4,7.14-5.28,11.06-4.79C371.13,335.94,376.28,338.1,380.35,341.62z"/>
		<path class="st5" d="M389.46,344.95c5.12,0.99,2.12,5.91-2.13,4.17C382.25,347.94,385.59,341.84,389.46,344.95z"/>
		<path class="st5" d="M325.97,165.93c0.69,2.43-1.35,4.68-2.49,6.68c-1.57,2.34-4.12,3.69-6.21,5.51c-1.27,1.19-2.5,2.47-3.44,3.94
			c-0.11,1.08-0.95,2.02-2.1,1.95c-1.13,0.76-2.83-0.03-2.98-1.4c-1.04-7.94,8.31-13.62,13.9-17.7
			C323.81,164.27,325.46,164.65,325.97,165.93z"/>
	</g>
	<g>
		<path class="st6" d="M132.41,233.61c0.04,0.23,0,0.46-0.1,0.66c0.49,1.39-1.1,2.74-1.44,4.09c-1.13,1.64-1.02,6.85-3.21,6.8
			c-11.15-5.33-16.28-18.29-18.11-29.87c-6.6,0.45-11.8-4.33-15.94-8.89c-4.22-3.82-7.64-13.37,0.87-13.9
			c-1.73-2.95-0.41-7.55,3.48-7.42c1.89-0.06,3.55,0.95,5.34,1.37c-2.14-6.65-7.58-12.54-7.36-19.8c1.15-8.39,8.21-0.89,9.45,3.34
			c1.73,4.46,1.82,9.41,3.51,13.85c2.88,2.35,2.84-3.98,3.3-5.54c0.63-4.15,1.23-8.35,2.5-12.36c0.77-3.06,5.61-7.98,7.88-3.62
			c1.32,5.56-0.03,11.53-1.81,16.85c-0.31,2.2-3.08,6-1.01,7.65c2.55,2.6,4.01,6.08,3.95,9.73c0.19,3.63-1.23,7.04-1.86,10.55
			c-0.94,8.08,1.2,16.67,6.8,22.7c0.99,1.05,4.81,1.62,3.6,3.41C132.33,233.32,132.38,233.45,132.41,233.61z"/>
		<path class="st7" d="M112.83,195.18c0.1-0.11,0.21-0.22,0.3-0.35c-0.19,0.06-0.39,0.12-0.59,0.17
			C112.64,195.03,112.73,195.09,112.83,195.18L112.83,195.18z M122.81,161.73c0.75,0.2,1.37,0.67,1.23,1.44
			c-1.08,1.72-1.88-1.5-3.87,1.44c0.01-0.01,0.02-0.02,0.03-0.04c-2.24,3.04-3.11,6.76-3.82,10.4c-0.6,2.72-1.14,5.46-1.24,8.26
			c0.14,0.43,0.06,0.89-0.17,1.18c-0.13,0.26-0.37,0.42-0.78,0.43c-0.58-0.04-0.81-0.62-0.79-1.13c-1.95,0.85-1.13-1.94-1.07-2.94
			c0.22-2.56,0.68-5.08,1.14-7.61c0.67-4.42,1.84-9.78,6.11-12.05c0.96-0.35,2.22-1.11,3.19-0.53
			C123.19,161.07,123.11,161.43,122.81,161.73L122.81,161.73z M106.59,184.2c0.2,0.41,0.04,0.78-0.25,0.99
			c-0.11,0.57-0.81,0.92-1.32,0.59c-0.37,0.31-0.87,0.28-1.2-0.07c-3.45-4.88-9.25-15.2-6.72-21.11c0.35-0.82,1.2-2.53,2.27-1.7
			c0.36-0.14,0.79-0.01,1.01,0.32c0.05,0.08,0.09,0.15,0.11,0.23c1.05-0.31,2.12,0.88,0.98,1.59c-3.64,0.34,1.04,8.99,1.73,10.99
			C104.34,178.74,105.39,181.5,106.59,184.2L106.59,184.2z M107.11,199.57c-0.68-0.85-2.03-0.51-2.87-1.21
			c-3.33-2.04-8.12-7.8-6.46-11.87c1.95-0.57,0.19-2.54-1.07-1.36c-0.31-1.01-2.45-0.65-1.82,2.81c-1.59,1.14,2.33,9.4,3.89,9.79
			c1.26,1.25,2.66,2.53,4.23,3.39c0.05,0.37,0.31,0.69,0.83,0.68C105.2,201.94,107.86,201.48,107.11,199.57L107.11,199.57z
			 M131.54,233.01c2.12-0.14,0.39,2.74-0.09,3.63c-0.5,0.77-0.75,2.68-1.73,2.92c0.05,0.03,0.11,0.06,0.17,0.09
			c0.7,0.71,0.19,1.74,0.05,2.57c-0.19,1.22-0.35,2.92-1.99,2.81c-9.03-2.91-14.02-13.12-16.43-21.68
			c-2.93-10.21-1.3-6.59-9.98-11.15c-0.45-0.43-1.37-0.9-1.86-1.48c-0.14-0.01-0.29-0.03-0.44-0.06c-2.13-0.82-4.42-2.24-5.62-4.2
			c-0.15-1.31,1.34-1.04,2.16-0.8c0.95,0.2,1.88,0,2.69-0.46c-1.41-0.23-2.74-0.84-3.98-1.51c-2.39-0.66-4.42-2.76-5.2-5.11
			c-0.24-0.98-0.86-2.75,0.37-3.26c-0.13-2.81,2.52-2.64,1.85-0.86c-0.78,2.61,1.51,5.17,3.41,6.72c1.39,1.29,3.22,1.77,4.86,2.54
			c0.06,0.06,0.11,0.12,0.15,0.18c0.3-0.4,0.55-0.84,0.72-1.3c0.1-0.51,0.22-1.09,0.79-1.26c1.69,0.06,3.32,1.83,5.04,0.24
			c1.88-1.64,0.63-5.16,3.42-5.83c0.4-0.06,0.84-0.31,1.28-0.52c-1.53,0.18-3.1,0.13-3.67-0.03c-1.93-0.61-4.14-1.27-5.2-3.16
			c-0.39-0.62-0.9-1.78-0.14-2.28c-0.16-0.8-0.13-1.62,0.58-2.04c0.76-0.38,1.54,0.6,1.02,1.25c0.8,6.36,7.42,0.97,10.35,3.2
			c1.09,0.82,1.11,1.73,0.78,2.24c0.13,0.87-0.54,2.26-3.36,3.68c-0.5,3.58-0.27,8.02-5.31,7.51c-0.39,0.67-0.85,1.4-1.37,2.09
			c0.13,0.11,0.26,0.22,0.39,0.33c0.11,0.09,0.21,0.17,0.32,0.25c3.77,1.55,8.3,2.84,9.44,7.16c0.16,0.61,0.31,1.23,0.44,1.85
			c0.86,2.6,1.31,5.46,2.41,7.86c0.63,1.72,1.4,3.47,2.35,5.08c0,0,0,0,0,0c0.9,1.24,2.02,2.53,3.12,3.44
			c0.45,0.24,0.94,0.43,1.47,0.55c0.82,0.27,1.74,0.12,2.42-0.35c0.25-0.5,0.42-1.22,0.49-2.18c0-0.07,0.01-0.13,0.02-0.2
			c-0.05-0.43-0.18-0.89-0.46-1.37c-1.04-1.5,0.88-2.67,1.36-1.05c0.19,0.44,0.38,0.89,0.52,1.35c0.53,0.23,0.87,1.05,0.82,1.66
			c0.16,0.03,0.32,0.12,0.45,0.25c0.07,0.07,0.12,0.15,0.16,0.24c0.36-0.08,0.76,0.08,0.94,0.43
			C131.52,232.97,131.53,232.99,131.54,233.01z"/>
	</g>
	<g>
		<path class="st8" d="M213.7,229.19c0.05,1.53-0.39,3.1-1.32,4.33c-2.48,2.53-7.32,1.35-10.57,1.51
			c-4.34-0.36-8.49,1.21-12.79,1.26c-1.89-0.01-4.21-0.8-4.77-2.8c-0.57-1.77-0.39-6.77,2.51-5.49c6-0.54,11.97-1.43,17.98-1.86
			C207.71,226.08,213.47,224.86,213.7,229.19z"/>
		<path class="st8" d="M312.66,228.44c2.42,0.97,2.04,4.33,0.66,6.04c-1.35,1.92-3.95,2.03-6.09,1.99
			c-3.43-0.03-6.74-1.05-10.15-1.28c-3.8-0.47-8.99,0.83-11.89-2.21c-1.34-1.59-1.45-6.86,1.14-7.18c0.39,0,0.73,0.21,0.92,0.53
			c4.29-0.16,8.57,0.24,12.86,0.35C304.3,227.04,308.69,226.89,312.66,228.44z"/>
		<path class="st9" d="M270.29,241.72c4.9-2.26,0.59,8.24-0.72,9.59c-2.37,2.86-5.52,6.27-9.51,6.24c-0.15-0.03-0.3-0.07-0.45-0.12
			c-0.06-0.39-0.25-0.78-0.59-1.04c-0.57-0.65-1.38-1.02-2.05-1.54c-0.71-0.62-1.48-1.27-2.29-1.76c-1.69-1-3.68-1.26-5.61-1.35
			c-3.95-0.33-7.86,0.81-11.54,2.16c-1.4,0.69-2.94,1.47-3.89,2.74c-0.01,0.02-0.01,0.03-0.02,0.05c-0.6,0.06-1.22-0.09-1.79-0.39
			c-4.3-1.98-7.66-6.09-8.62-10.74c-0.31-1.46-0.91-8.69,2.06-6.13c0.65,0.5,1.38,0.89,2.15,1.22c0.47,0.36,0.95,0.7,1.46,1.01
			c6.07,3.41,13.21,3.1,19.96,3.74c1.38,0.04,2.75,0.01,4.13-0.07C259.62,245.69,263.6,245.21,270.29,241.72z"/>
		<path class="st10" d="M259.61,257.43c0.13,0.83-0.37,1.68-1.44,1.42c-4.71,1.45-9.75,1.68-14.64,1.55
			c-2.88-0.22-6.09-0.53-8.41-2.4c-0.82,0.48-1.88-0.45-1.51-1.32c0.01-0.02,0.01-0.03,0.02-0.05c0.95-1.27,2.49-2.05,3.89-2.74
			c3.67-1.35,7.59-2.49,11.54-2.16c1.93,0.09,3.92,0.36,5.61,1.35c0.82,0.49,1.58,1.14,2.29,1.76c0.67,0.52,1.48,0.89,2.05,1.54
			C259.36,256.65,259.55,257.04,259.61,257.43z"/>
		<path class="st11" d="M263.25,237.76c2.23-0.46,9.15-1.1,8.71,2.5c-0.54,1.47-2.93,1.55-4.2,2.17c-4.78,1.47-9.76,2.58-14.78,2.9
			c-1.37,0.09-2.75,0.11-4.13,0.07c-6.76-0.65-13.9-0.33-19.96-3.74c-0.51-0.31-0.99-0.65-1.46-1.01c-0.43-0.33-0.85-0.68-1.27-1.02
			c-0.31-0.05-0.6-0.23-0.76-0.51c-0.43-0.69,0.07-1.65,0.88-1.68c4.42-2.53,13.65-0.56,18.68,0.13
			C251.01,238.65,257.18,238.58,263.25,237.76z"/>
		<path class="st12" d="M206.78,200.94c2.39,0.81,1.9,3.52-0.53,3.77c-2.66,0.36-5.34,0.68-7.97,1.23
			c-1.84,0.24-4.16,1.17-5.79-0.07c-1.26-1.18,0.31-3.33,1.79-3.21C197.94,200.67,202.71,199.85,206.78,200.94z"/>
		<path class="st12" d="M305.12,204.4c0.71,0.88-0.18,2.11-1.24,1.84c-2.98-0.64-12.92-0.73-14.31-2.89
			c-0.74-0.4-1.06-1.42-0.5-2.09c1.77-1.68,8.64,0,10.87,0.76C301.68,202.74,303.72,203.1,305.12,204.4z"/>
	</g>
	<g>
		<path class="st13" d="M228.9,92.11c-3.21-9.41,1.77-21.27,9.98-26.59c8.73-6.13,21.8-2.71,23.49,8.64
			c6.87,0.46,9.16,8.32,8.76,14.16c-0.17,1.02,0.55,3.13-1.08,3.07c-1.69-0.21-0.32-6.01-1.1-7.69c-0.57-3.48-2.58-7.24-6.45-7.62
			c-0.64-0.01-1.28-0.2-1.65-0.76c-1.3-3.84-2.39-7.93-6.56-9.65c-10.81-4.94-22.13,5.34-23.84,15.85
			c-0.49,2.58-0.98,5.24-0.44,7.85c0.15,0.69,0.35,1.36,0.64,2C231.16,92.49,229.37,93.26,228.9,92.11z"/>
		<path class="st13" d="M195.36,140.49c-8.05-6.55-2.69-22.19,7.7-22.45c-1.57-7.55,5.56-14.27,12.98-11.91
			c-1.21-7.45,5.82-16.32,13.7-14.95c8.17,2.22,4.05,6.84,3.13,3.76c-5.23-5.08-12.84,0.41-14.51,6.22
			c-1.45,2.82,0.48,5.73-0.66,6.95c-0.88,0.61-1.9-0.22-2.83-0.31c-4.07-0.93-8.48,1.32-9.65,5.42c-1.11,2.05,0.58,5.58-0.8,6.59
			c-8.39-0.27-13.29,9.49-9.99,16.69c0.36,1.4,3.05,2.38,2.26,3.82C196.39,140.72,195.76,140.82,195.36,140.49z"/>
		<path class="st13" d="M179.87,151.41c-1.17-7.84,4.67-15.83,12.48-17.06c1.61,0.18,0.89,2.24-0.49,2.1
			c-5.67,1.14-9.83,6.55-10.2,12.22c-0.05,0.83-0.05,1.66,0.1,2.48C181.95,152.36,180.04,152.64,179.87,151.41z"/>
		<path class="st13" d="M166.23,185.74c-7.24-12.47,1.62-34.1,17.06-34.1c1.13,0.27,3.27-0.02,3.51,1.44
			c-0.07,1.23-1.35,0.94-2.16,0.68c-10.81-1.77-18.55,10.84-19.04,20.37c-0.23,2.7,0.17,5.43,1.03,7.99
			c0.33,0.93,0.74,1.82,1.24,2.67C168.51,185.82,166.85,186.82,166.23,185.74z"/>
		<path class="st13" d="M150.27,220.31c-7.24-6.68-5.86-20.87,3.74-24.64c0.03-6.92,7.21-12.73,13.97-10.96
			c0.94,0.36,0.66,1.85-0.36,1.83c-1.24-0.36-2.55-0.24-3.82-0.02c-3.65,0.6-6.82,3.64-7.63,7.24c-0.29,1.21,0.06,2.84-1.21,3.56
			c-2.51,1.05-4.66,2.88-5.9,5.32c-2.21,4.34-1.89,9.92,0.64,14.06c0.57,0.81,1.21,1.57,1.92,2.26
			C152.5,219.81,151.13,221.19,150.27,220.31z"/>
		<path class="st13" d="M138.8,268.97c-10.9-5.91-13.46-21.05-8.53-31.71c1.56-4.09,4.23-7.59,7.6-10.35
			c0.98-2.89,1.96-5.91,4.39-7.99c1.61-1.63,3.68-2.8,5.94-3.2c1.21,0.03,1.23,1.79,0.07,1.96c-1.54,0.27-2.93,1.03-4.09,2.06
			c-1.69,1.44-2.99,3.29-3.7,5.39c-0.4,1.2-0.51,2.61-1.58,3.44c-8.92,7.29-11.73,21.05-6.43,31.27c1.36,2.69,3.48,4.95,5.93,6.67
			c0.45,0.29,0.9,0.56,1.38,0.8C140.83,267.91,139.86,269.62,138.8,268.97z"/>
		<path class="st13" d="M141.8,280.1c-4.11-4.06-4.39-10.6-2.06-15.65c0.63-1.14,0.94-3.09,2.36-3.43c0.87-0.03,1.27,1.14,0.62,1.68
			c-2.86,4.67-3.86,11.23,0.03,15.63C144.07,279.07,143.1,281.13,141.8,280.1L141.8,280.1z M142.16,262.92
			c0.2-0.01,0.39-0.08,0.54-0.21C142.54,262.82,142.36,262.9,142.16,262.92z"/>
		<path class="st13" d="M163.64,325.63c-13.83-0.64-28.96-11.85-25.27-27.05c-8.66-5.81-11.12-17.36-8.67-27.12
			c0.07-1.72,4.15-10.33,5.71-6.59c0,0.39-0.25,0.74-0.59,0.88c-0.97,0.79-1.56,1.94-2.15,3.02c-3.01,7.29-2.67,16.25,1.59,22.95
			c1.14,1.6,2.37,3.2,4,4.33c0.91,0.54,1.96,1.18,2.02,2.36c-1.12,5.67-0.22,11.71,3.78,16.13c6.01,6.5,16.28,10.96,25.05,8.32
			c0.5-0.15,1.04,0.18,1.17,0.67C170.65,325.51,164.99,325.53,163.64,325.63z"/>
		<path class="st13" d="M290.62,105.82c-1.53-0.72,0.91-3.71,0.66-5.22c0.22-8.96-9.69-14.96-17.9-13.08
			c-0.98,0.13-1.86,0.59-2.78,0.86c-1.27-0.05-1.18-1.78-0.03-2.01c7.92-3.08,18.56,0.68,21.56,8.92c1.2,2.69,1.46,5.77,0.35,8.54
			C292.13,104.65,291.83,106.26,290.62,105.82z"/>
		<path class="st13" d="M301.22,120.98c-1.59-0.16-0.21-4.39-0.89-5.82c-1.15-5.1-6.42-8.76-11.47-9.2
			c-2.23,0.38-2.85-1.52-1.13-1.92c7.06-0.18,14.67,5.58,14.72,12.98C302.26,118.24,303.01,120.91,301.22,120.98z"/>
		<path class="st13" d="M328.11,155.17c-0.46-0.19-0.73-0.78-0.51-1.25c0.68-1.42,1.2-2.92,1.45-4.48
			c0.21-6.25-2.65-13.01-7.45-17.06c-2.81-2.69-7.01-1.39-7.18-3.19c0.22-1.6,0.73-3.35,0.32-4.96c-0.71-5.94-6.92-9.08-12.35-7.36
			c-0.49,0.74-1.74,0.33-1.72-0.56c1.32-3.03,6.85-1.6,9.37-0.87c5.14,1.65,7.61,7.94,6.44,12.95c9.19,0.95,13.82,11.39,14.56,19.59
			C331.06,149.48,330.15,155.75,328.11,155.17z"/>
		<path class="st13" d="M318.22,196.45c-0.37-6.05-6.66-10.23-12.44-9.14c-2.19,0.18-3.72,2.48-5.87,2.4
			c-1.67-1.15-2.25-3.53-4.15-4.56c-6.77-4.28-15.91,0.67-19.01,7.3c0-0.01,0-0.01-0.01-0.01c0.24,1.07-1.41,1.57-1.81,0.54
			c-0.23-2.95,2.85-5.25,4.72-7.21c5.93-5.48,16.82-5.95,20.86,1.97c4.79-3.78,12.03-3.07,16.27,1.23c1.83,1.98,3.14,4.51,3.33,7.23
			C320.28,197.41,318.37,197.68,318.22,196.45z"/>
		<path class="st13" d="M318.59,195.19c-0.22-1.68,2.84-1.52,3.87-2.41c3.56-2,7.11-4.93,8.55-8.86c-6.08-2.37,4.44-6.05,3.69-15.08
			c-4.42-0.49-2.28-3.28-1.31-5.95c1.18-3.47,1.81-7.12,2.14-10.77c-4.31,2.43-9.04,4.28-12.84,7.51c-1.55,1.13-4.41,7.28-5.07,2.14
			c-2.5,2.24-5.08,4.37-6.95,7.17c-1.85,4.05-3.31,4.36-3.89-0.43c-4.3,4.22-8.33,9.85-7.9,16.16c-0.12,0.88,0.71,1.74,0.2,2.54
			c-0.86,0.98-1.93-0.15-1.95-1.15c-0.6-3.51,0.18-7.12,1.82-10.25c0.92-2.14,9.04-14.63,9.76-7.31c1.64-2.77,4.07-4.95,6.44-7.08
			c1.1-1.02,3.36-3.38,4.19-0.86c3.23-4.5,8.66-6.43,13.32-9.07c2.56-1.62,5.32-2.65,4.69,1.69c-0.52,4.65-1.46,9.29-3.47,13.54
			c6.75,0.52-0.21,12.68-2.82,15.11c5.95,2.37-4.61,11.25-7.53,12.56C322.27,194.76,319.4,196.92,318.59,195.19z"/>
		<path class="st13" d="M310.61,186.7c1.86-5.51,7.03-9.4,10.61-13.86c1.2-1.38,2.35-2.8,3.39-4.32c1.04-0.97,1.79-4.92,3.46-4.14
			c2.08,3.14-10.56,14.8-12.69,17.93c-1.09,1.46-2.08,2.73-2.86,4.31c0,1.22-1.92,1.21-1.9-0.01
			C310.61,186.61,310.61,186.7,310.61,186.7z"/>
		<path class="st13" d="M345.4,205.02c-1.59-0.71,0.16-3.06,0.13-4.34c1.5-9.1-1.49-19.51-9.56-24.67
			c-2.02-0.71-1.63-2.61,0.05-2.16c7.76,4.22,11.4,12.86,11.79,21.38C347.89,196.91,347.61,205.42,345.4,205.02z"/>
		<path class="st13" d="M364.95,225.68c-1.25-0.42-0.39-1.88-0.44-2.8c0.11-1.85-0.19-3.7-0.54-5.52
			c-1.55-8.32-7.05-16.79-16.06-17.81c-1.48,0.15-2.28-1.69-0.58-2c9.2,0.68,15.86,8.5,17.93,17.08
			C365.78,216.55,367.95,225.7,364.95,225.68z"/>
		<path class="st13" d="M373.35,269.54c-2.38-1.45,1.8-2.53,2.59-3.58c1.65-1.51,2.79-3.47,3.84-5.42c4.05-8.73,1.5-21.97-8.1-25.87
			c-3.18-1.02-0.74-3.57-0.7-5.74c0.24-2.9-2.06-6.05-5-6.4c-0.59,0.07-1.19-0.32-1.19-0.96c0.49-2.04,3.58-0.41,4.68,0.37
			c3.4,2.44,4.31,7.03,2.48,10.72c9.76,3.7,12.98,15.36,11,24.84C381.48,262.29,378.49,268.14,373.35,269.54z"/>
		<path class="st13" d="M367.95,309.59c-0.96-1.24,1.2-2.14,1.29-3.42c0.92-7.86,0.38-1.99,8.28-8.2c7.7-7.4,5.65-22.04-1.71-29.02
			c-1.01-0.51-1.78-2.29-0.17-2.5c0.84,0.09,1.21,1.08,1.9,1.51c9.96,9.78,9.51,31.64-6.08,35.32
			C371.82,305.01,370.37,310.87,367.95,309.59z"/>
		<path class="st13" d="M196.51,351.94c-9.02-0.48-17.65-5.21-22.79-12.66c-3.69-6.1-4.91-13.91-3.93-20.9
			c0.63-1.12,2.39-0.12,1.69,0.99c-0.14,1.75-0.13,3.52-0.05,5.27c0.45,6.69,2.44,13.73,7.87,18.08c6.32,5.91,15.45,8.51,23.95,6.95
			c1.42,0.07,4.41-2.26,5.12-0.75C208.94,351.68,198.46,352.27,196.51,351.94z"/>
		<path class="st13" d="M225.85,318.25c-8.34-0.26-15.95-6.4-18.08-14.46c-0.21-1.47-1.6-4.01,0.07-4.94
			c1.69-0.27,0.97,1.81,1.34,2.78c1.02,5.22,4.22,9.91,8.92,12.47c4.31,2.55,9.8,2.87,14.54,1.4c1.41-0.14,4.4-2.84,5.24-1.46
			c0.62,1.68-2.14,2.03-3.18,2.7C231.94,317.97,228.86,318.37,225.85,318.25z"/>
		<path class="st13" d="M243.32,320.8c-3.97,0.07-7.69-1.2-10.93-3.43c-2.11-0.17-0.72-2.8,0.93-1.67
			c3.65,2.63,8.05,3.51,12.49,3.17c3.44-0.26,6.75-1.54,9.6-3.46c1.05-0.44,2.02-2.41,3.22-1.47c1.05,1.48-1.57,2.42-2.44,3.24
			C252.41,319.7,247.86,321.07,243.32,320.8z"/>
		<path class="st13" d="M210.04,358.99c-2.55-0.21-1.18-6.96-1.62-8.98c-0.07-3.38-0.11-6.83,0.76-10.13
			c-5.08,1.16-1.43-11.37-0.38-13.66c-6.79,3.37-0.38-14.15,1.67-15.87c1.57-2.36,4.15-0.01,1.82,0.86
			c-2.94,3.71-4.32,8.75-4.56,13.44c1.19-0.53,2.84-2.76,4.03-1.31c0.34,1.64-1.35,3.17-1.64,4.82c-1.05,3.14-1.97,6.5-1.44,9.83
			c1.04-1.08,3.25-2,2.89,0.42c-0.56,1.92-1.05,3.87-1.17,5.88c-0.22,4.24,0.01,8.5,0.1,12.75c4.32-1.85,8.09-4.94,11.41-8.23
			c1.53-1.25,2.47-4.74,4.23-5.09c1.41,0.08,1.6,1.84,1.82,2.93c2.21-1.61,4.01-3.82,5.31-6.22c0.85-1.92,2.66-7.14,5.01-3.55
			c5.14-3.72,8.87-10.05,8.75-16.49c-0.02-1.23,1.91-1.24,1.9,0c0.07,3.86-1.05,7.72-3.13,10.96c-1.33,1.96-6.91,10.39-9.19,6.44
			c-1,1.84-1.62,3.88-2.88,5.57c-1.51,2.05-7.11,9.06-7.75,3.02C223.31,351.1,215.36,357.91,210.04,358.99z"/>
		<path class="st13" d="M219.69,339.9c-2.35,0.08,1.81-11.48,2.63-12.73c0.99-1.72,6.81-12.69,8.8-10.97
			c0.52,0.52,0.23,1.23-0.28,1.64c-2.77,3.16-5.04,6.72-6.95,10.45c-1.17,2.38-1.95,4.93-2.48,7.53
			C220.86,337.05,221.45,339.77,219.69,339.9z"/>
		<path class="st13" d="M224.08,334.19c-1.47-0.08-2.43-6.82-0.56-6.68c0.5,0,0.97,0.43,0.95,0.95c-0.05,1.33-0.01,2.68,0.39,3.95
			C225.42,333.12,225.1,334.31,224.08,334.19z"/>
		<path class="st13" d="M218.94,325.23c-0.52-0.68,0.07-1.61,0.89-1.55c1.63-0.5,3.22-1.15,4.77-1.84c1.06-0.91,2.44,0.73,1.23,1.51
			C224.24,323.9,220.3,326.39,218.94,325.23z"/>
		<path class="st13" d="M230.42,324.16c-1.34-0.82-2.14-8.12,0.22-7.71c0.5,0.14,0.81,0.67,0.66,1.17
			c-0.36,1.61-0.26,3.37,0.21,4.94C232.85,323.21,231.54,325.06,230.42,324.16z"/>
		<path class="st13" d="M311.62,183.3c0.08-1.26,0.03-2.57-0.41-3.77c-1.47-1.62,1.43-2.54,1.84-0.53c0.27,1.3,1.39,4.91-0.48,5.25
			C312.08,184.25,311.59,183.82,311.62,183.3z"/>
		<path class="st13" d="M317.98,174.99c0.3-1.25-0.72-4.02,1.17-4.12c1.54,0.45,0.5,2.9,0.74,4.12
			C319.89,176.23,317.96,176.23,317.98,174.99z"/>
		<path class="st13" d="M316.91,180.05c-2.41-1.86,6.43-6.03,7.9-5.39c0.71,0.38,0.57,1.57-0.23,1.74c-2.19,0.5-4.26,1.55-6,2.97
			C318.14,179.82,317.61,180.47,316.91,180.05z"/>
		<path class="st13" d="M312.65,187.38c-0.89-1.89,2.33-2.17,3.54-2.5c1.22-0.18,1.48,1.72,0.26,1.89
			C315.18,186.67,313.6,188.39,312.65,187.38z"/>
		<path class="st13" d="M256.2,360.89c-8.13,0.03-16.41-2.06-22.03-8.29c-1.14-1.26-6.59-6.81-3.51-7.72c1,0,0.88,1.1,1.27,1.73
			c5.54,9.38,14.7,12.58,25.15,12.39c5.53-0.11,11.49-0.84,16.31-3.69c1.35-0.56,3.89-4.38,5.08-3.2c1.02,1.44-1.52,2.46-2.29,3.42
			C270.78,360.09,263.03,360.84,256.2,360.89z"/>
		<path class="st13" d="M287.19,356.38c-2.98-0.32-6.01-0.92-8.63-2.46c-1.22-0.77-6.09-3.86-3.13-4.93
			c0.41-0.01,0.8,0.29,0.91,0.68c0.7,0.84,1.56,1.53,2.46,2.15c4.9,3.03,11.27,3.3,16.81,2.37c5.88-1.52,12.76-4.49,14.99-10.6
			c0.69-1.14,0.1-3.72,1.8-3.81c2.04,0.42-0.49,5.66-1.1,6.83C306.19,354.11,295.99,357.4,287.19,356.38z"/>
		<path class="st13" d="M319.29,349.14c-3.07,0.05-6.11-0.68-8.52-2.64c0.07,0.05,0.15,0.1,0.24,0.13c-1.37-0.56-0.13-2.58,1-1.58
			c2.91,2.2,7.44,3.04,10.77,1.41c1.27-0.88,2.47-1.95,3.19-3.34c0.47-0.87,0.56-2.13,1.63-2.48c8.18-0.51,15.83-1.02,16.9-11.05
			c0.04-0.74,0.01-1.49-0.1-2.23c-0.19-1.21,1.73-1.49,1.89-0.26c1.06,11.56-7.94,15.56-17.96,15.3
			C327.07,346.16,323.42,349.46,319.29,349.14z"/>
		<path class="st13" d="M345.05,328.07c-1.07-0.12-1.08-1.76,0-1.89c0.7,0.01,1.39,0.01,2.09-0.03c4.13-0.27,8.29-2.15,10.7-5.6
			c0.37-0.45,0.48-1.15,1.04-1.41c0.74-0.35,1.61,0.5,1.25,1.25C357.34,325.77,350.91,328.38,345.05,328.07z"/>
		<path class="st13" d="M325.15,293.06c-0.91-0.04-1.82-0.14-2.71-0.31c-1.2-0.24-0.83-2.12,0.38-1.87
			c2.86,0.51,5.92,0.44,8.56-0.89c8.5-4.05,11.61-15.43,8.03-23.81c-0.21-0.66-0.93-1.33-0.32-1.99c0.35-0.39,0.96-0.4,1.35-0.06
			c0.64,0.69,0.82,1.7,1.17,2.55C345.95,277.85,338.23,293.87,325.15,293.06z"/>
		<path class="st13" d="M298.32,310.54c-1.41,0.2-8.64-1.83-5.51-3.6c1.57,0.3,2.94,1.58,4.65,1.64c2.03,0.24,4.17-0.57,5.92-1.47
			c2.19-0.8,3.2-4.27,5.13-4.21c2.55,1.14,5.35,2.06,8.16,1.24c3.18-0.95,6.34-3.09,7.72-6.19c0.82-2.01,0.9-4.22,1.11-6.33
			c0.51-1.06,2.2-0.3,1.73,0.79c0.05-0.13,0.07-0.26,0.07-0.4c0.81,9.98-9.9,17.67-18.89,12.86
			C306.17,308.23,302.35,310.37,298.32,310.54z"/>
		<path class="st13" d="M362.67,317.15c-1.55,0.24-10.68-1.28-9.64-3.55c0.63-1.11,1.8-0.08,2.62,0.22c0.8,0.34,1.61,0.63,2.44,0.87
			c3.44,0.79,7.26,0.92,10.61-0.32c-2.14-3.62-3.53-7.65-5.85-11.15c-0.72-1.36-4.95-4.27-1.57-4.94c-1.91-2.73-3.99-5.48-6.89-7.23
			c-1.35-0.93-3.05-1.26-4.36-2.2c-1.07-1.89,1.97-2,3.15-2.27c-2.37-2.12-5.1-3.93-8.3-4.38c-1.42-0.19-2.67-0.62-4.03-0.39
			c-1.15,0.21-1.54-1.42-0.54-1.86c3.46-0.3,7.29,0.6,10.31,2.33c1.86,1.24,8.36,5.34,2.92,6.17c2.22,1,4.2,2.48,5.83,4.29
			c0.88,1.26,6.39,6.53,3.36,7.33c3.28,3.43,4.69,8.15,6.99,12.19C373.18,316.91,365.66,317.19,362.67,317.15z"/>
		<path class="st13" d="M353.53,318.09c-5.08-1.04-9.78-3.79-13.8-7.01c-0.26,1.05,0.26,2.23-0.19,3.21
			c-1.11,1.6-5.25-1.69-6.68-2.25c-4.37-2.42-8.14-5.91-9.86-10.71c-0.53-1.11,1.21-1.94,1.72-0.82c0.36,0.85,0.75,1.69,1.19,2.5
			c2.41,4.66,7.35,7.17,11.85,9.46c-0.07-5.16,2.2-3.87,5.11-1.38c3.03,2.22,6.49,3.83,10.06,4.98c-0.08-0.85-0.55-1.53-0.28-2.28
			c0.34-0.74,1.54-0.66,1.75,0.14C354.68,315.28,355.79,318.04,353.53,318.09z"/>
		<path class="st13" d="M358.23,321.6c-0.93-0.98,0.58-1.86,0.98-2.71c0.82-0.92,0.89-3.79,2.63-2.96c1.05,0.99-0.43,2.45-0.75,3.51
			C360.45,320.32,359.57,322.56,358.23,321.6z"/>
		<path class="st13" d="M355.87,308.29c-6.69-6.83-14.57-13.36-23.94-15.94c-1.44,0.38-1.66-1.95-0.17-1.9
			c5.87,0.9,10.96,4.71,15.85,7.88c3.57,2.47,6.56,5.63,9.65,8.65C358.1,307.87,356.72,309.2,355.87,308.29z"/>
		<path class="st13" d="M348.63,305.65c-0.42-1.62-0.91-3.24-1.67-4.73c-0.36-0.88-1.81-1.96-0.74-2.84
			c2.18-1.07,3.8,5.63,4.27,7.16C350.77,306.44,348.89,306.86,348.63,305.65z"/>
		<path class="st13" d="M345.91,297.19c-1.53-0.1-3.42-0.07-4.57-1.21c-0.52-0.64,0.14-1.67,0.94-1.49c1.54,0.85,3.4,0.89,5.13,0.74
			c0.52-0.06,0.99,0.36,1.03,0.87C348.47,297.42,346.81,297.14,345.91,297.19z"/>
		<path class="st13" d="M336.17,298.19c-0.44-1.08-0.93-2.14-1.47-3.18c-0.35-1.03-2.1-2.46-0.77-3.37
			c1.61-0.88,3.36,4.73,4.03,5.89C338.4,298.69,336.6,299.36,336.17,298.19z"/>
		<path class="st13" d="M332.19,291.48c0.09-1.63,2.4-0.91,3.46-1.49c1.3-0.11,3.8-2.32,4.65-0.95c0.64,1.69-2.58,2.03-3.64,2.62
			C335.49,291.88,332.57,293.23,332.19,291.48z"/>
		<path class="st13" d="M180.23,277.88c-15.05-3.5-17.66-21.31-6.14-30.52c0.78-0.77,2.89-1.61,2.94,0.14
			c-0.09,0.9-1.12,0.76-1.65,1.27c-7.64,5.45-9.2,18.57-1.13,24.32c2.07,1.31,4.37,2.22,6.68,3.01
			C182.09,276.55,181.37,278.35,180.23,277.88z"/>
		<path class="st13" d="M187.33,302.71c-9-1.72-13.29-11.98-10.23-20.14c-3.22-1.35-6.51-6.45-3.77-9.42
			c1.06-0.52,2.05,0.98,1.04,1.66c-0.31,1.33,0.17,2.76,0.92,3.86c0,0,0,0,0-0.01c0,0-0.01-0.01-0.03-0.04
			c0.72,1.13,1.87,1.82,3.01,2.44c1.94,1.5-0.95,5.58-0.21,8.1c0.1,7.6,7.67,13.5,15.06,11.65c0.51-0.1,1.01,0.29,1.09,0.79
			C194.34,303.65,188.67,302.95,187.33,302.71z"/>
		<path class="st13" d="M182.94,184.62c-1.64-2.35-0.49-6.08,0.6-8.54c2.96-5.9,10.52-9.35,16.88-7.49
			c1.19,0.29,0.73,2.17-0.46,1.85c-0.52-0.16-1.05-0.29-1.58-0.39c-6.63-0.71-13.99,4.15-14.26,11.17
			C183.9,182.37,185.17,185.27,182.94,184.62L182.94,184.62z M184.2,183.27c-0.04-0.08-0.1-0.15-0.18-0.21
			C184.09,183.13,184.15,183.2,184.2,183.27z"/>
		<path class="st13" d="M195.13,170.53c-2.04-0.7-0.75-3.65-0.32-5.12c1.47-5.16,9.27-7.68,13.08-3.76
			c0.24,1.49-1.32,1.38-2.15,0.66c-4.63-2.3-9.91,1.7-9.77,6.67C196.52,169.57,195.94,170.66,195.13,170.53L195.13,170.53z
			 M195.68,168.75c-0.07-0.05-0.15-0.07-0.23-0.09c0,0,0,0,0,0c-0.02,0-0.04-0.01-0.05-0.01
			C195.51,168.67,195.6,168.7,195.68,168.75z"/>
		<path class="st13" d="M204.74,161.46c-2.44-1.04,0.89-4.91,1.91-6.14c5.55-6.69,17.34-5.42,21.95,1.73
			c0.78,0.95-0.73,2.17-1.49,1.19c-0.4-0.56-0.83-1.09-1.29-1.6c-4.5-4.96-13.73-5.27-17.97,0.19c-0.78,0.91-1.53,1.88-1.95,3.02
			C205.77,160.59,205.73,161.55,204.74,161.46z"/>
		<path class="st13" d="M211.2,135.78c-0.95-1.61,0.91-3.52,1.75-4.85c3.92-5.09,11.93-6.15,17.24-2.67
			c2.62-4.21,7.61-7.73,12.73-6.2c1.15,0.55,4.06,1.28,3.28,2.97c-0.55,0.72-1.35,0.25-1.9-0.2c-4.96-3.43-10.36,0.9-13.08,5.1
			c-1.45,1.18-2.9-1-4.38-1.2c-4.14-1.36-9.2-0.38-12.1,3c-0.8,0.96-1.53,2.01-1.95,3.19C212.98,135.8,211.82,136.42,211.2,135.78z"
			/>
		<path class="st13" d="M263.5,109.51c-0.16-7.34-8.28-11-14.3-7.3c-1.82,1.08-3.54,2.51-4.61,4.37c-0.49,1.35-2.49,0.28-1.68-0.9
			c4.03-7.24,15.24-9.55,20.54-2.46c0.73,1.12,3.08,6.67,1.13,7.08C264.09,110.38,263.57,110.02,263.5,109.51z"/>
		<path class="st13" d="M272.62,112.04c-1.32-4.81-4.53-6.12-8.92-4.22c-3.24-2.61,5.59-3.53,6.88-1.92
			c1.49,0.43,5.33,5.94,3.23,6.79C273.31,112.83,272.77,112.54,272.62,112.04z"/>
		<path class="st13" d="M292.15,144.88c-2.11-6.83-7.89-11.62-15.19-8.58c-1.51,0.61-3.08,1.38-4.01,2.77
			c-0.12,1.26-2.05,1.16-1.93-0.14c0.91-2.91,4.36-4.18,7.04-4.97c5.3-1.72,11.12,1.07,13.85,5.77
			C292.64,140.84,295.25,145.81,292.15,144.88z"/>
		<path class="st13" d="M291.16,141.25c-2.35-0.96,0.76-3.19,2.09-3.44c1.36-0.31,4.83-1.14,4.85,0.99
			c-0.37,1.57-3.94-0.47-5.93,1.79C292.04,141.01,291.61,141.3,291.16,141.25z"/>
		<path class="st13" d="M338.57,233.89c-0.87-1.39,3.1-2.79,3.62-4.42c3.53-5.97-2.18-12.81-8.08-14.16
			c-0.94-0.35-1.79,0.55-2.64,0.1c-1.25-1.11,0.58-2.2,1.71-2.05c6.29,0.34,13,6.96,11.86,13.51c-0.28,2-1.15,3.97-2.66,5.34
			C341.39,232.93,339.79,235.2,338.57,233.89z"/>
		<path class="st13" d="M344.92,240.97c-1.29-1,1.3-2.73,0.94-4.52c0.18-4.61-4.2-3.89-3.84-5.86c1.29-2.05,4.96,1.76,5.33,3.29
			C348.24,235.64,347.64,241.7,344.92,240.97z"/>
		<path class="st13" d="M146.1,203.56c-2-2.86-3.02-6.4-3.5-9.83c-0.24-2.51-1.13-10.76,3.37-6.77c-0.71-3.44-0.98-6.95-1.32-10.44
			c-0.02-1.62-1.52-6.09,1.59-5.02c-0.59-3.2-2.17-6.04-3.65-8.89c-1.07-4.88,5.63-0.15,7.19,0.97c2.08,1.4,4.34,2.57,6.06,4.44
			c2.91-5.85,11.83,2.58,9.19,4.3c-1.5,0.47-1.89-2.48-3.17-3.15c-4.18-2.7-2.98-0.76-5.5,0.76c-1.28,0.43-2.12-0.91-2.97-1.62
			c-2.77-2-5.65-3.93-8.63-5.6c1.04,1.44,6.46,13.26,1.52,11.19c0.44,3.51,0.62,7.05,1.17,10.55c0.72,3.59,1.91,7.7-3.04,3.73
			c-0.48,4.43,0.4,8.82,2.32,12.8c0.24,0.83,1.1,1.26,1.24,2.08C147.98,204.06,146.65,204.31,146.1,203.56z"/>
		<path class="st13" d="M158.08,188.45c-0.73-3.61-2.45-6.89-4.55-9.9c-0.43-0.48-0.69-1.25-0.08-1.7c1.62-1.15,3.58,4.13,4.42,5.22
			C158.59,183.16,161.67,190.89,158.08,188.45z"/>
		<path class="st13" d="M159.41,185.97c-1.23-0.22-0.68-1.57-0.63-2.42c0.21-1.02-0.56-3.01,0.97-3.16
			c1.27,0.06,0.91,1.57,0.96,2.43C160.58,183.85,160.94,186.01,159.41,185.97z"/>
		<path class="st13" d="M155.32,189.53c-0.98-0.46-3.2-1.62-1.75-2.8c1.04-0.49,1.74,0.91,2.71,1.15
			C157.35,188.5,156.37,190.16,155.32,189.53z"/>
		<path class="st13" d="M131.02,232.89c-7.77-4.67-10.37-14.38-9.8-22.96c0.38-6.33,3.18-13.13,0.58-19.26
			c-2.58-4.92-9.65-6.18-14.63-4.88c-3.18,0.91-6.84,5.76-3.01,8.12c3.44,2.65,9.59-1.76,10.18,0.33c0.16,1.7-2.47,1.46-3.59,1.97
			c-6.85,2.26-13.88-3.57-7.93-9.85c5.88-6.03,20.19-2.62,21.63,6.11c1.05,5.95-0.84,11.86-1.35,17.76
			c-0.45,8.08,2.05,17.94,10.06,21.52C135.78,230.26,135.46,235.75,131.02,232.89z"/>
		<path class="st13" d="M117.68,185.63c1.85-6.21,4.93-12.19,5.25-18.8c0.18-11.24-7.6-4.23-8.19,2.53
			c-0.92,4.51-1.21,9.12-2.21,13.61c-0.31,1.18-2.17,0.69-1.84-0.51c1.97-7.33,0.52-17.21,6.92-22.46c2.14-1.9,5.41-0.91,6.49,1.64
			c1.51,3.69,0.49,7.9-0.33,11.65c-0.96,3.88-2.47,7.59-3.85,11.33c-0.34,0.71-0.27,1.93-1.3,1.95
			C118.11,186.58,117.68,186.15,117.68,185.63z"/>
		<path class="st13" d="M102.52,186.44c-3.34-5.83-7.33-11.69-7.7-18.61c-0.29-10.19,8.54-6.94,11.1,0.08
			c1.46,3.61,2.42,7.41,3.41,11.17c0.08,1.35,2.06,5.33-0.01,5.59c-1.3-0.09-0.93-1.79-1.26-2.69c-1.17-4.79-2.3-9.67-4.3-14.2
			c-0.99-2.32-5.25-7.1-6.8-2.84c-0.71,2.9,0.17,5.98,1.02,8.77c1.53,4.17,4.02,7.9,6.19,11.76
			C104.79,186.53,103.13,187.52,102.52,186.44z"/>
		<path class="st13" d="M104.07,203.32c-5.87-1.34-11.8-9.9-10.85-15.88c0.32-2.7,2.98-4.33,5.54-3.43
			c7.82,1.88,3.97,6.27,2.92,3.43c-4.41-3.28-7.95-1.79-6.35,3.95c1.19,3.01,2.94,5.88,5.37,8.05c3.05,2.96,7.03,2.74,5.74-2.27
			c-0.24-0.46-0.12-1.03,0.34-1.3C110.13,195.03,108.88,204.46,104.07,203.32z"/>
		<path class="st13" d="M97.63,206.37c-4.09-0.5-8.5-3.1-9.86-7.16c-1.15-3.77,1.91-8.8,6.2-7.65c1.23-0.01,1.23,1.91,0,1.9
			c-0.59,0-1.17-0.24-1.76-0.12c-3.1,0.86-3.57,5.41-1.38,7.46c1.53,2.07,9.23,6.39,8.89,1.25c-0.25-0.61-0.39-1.41,0.36-1.72
			C102.66,199.78,102.46,206.72,97.63,206.37z"/>
		<path class="st13" d="M109.3,215.88c-8.4-0.08-15.36-6.36-19.5-13.21c0.02,0.03,0.04,0.06,0.07,0.1c0.01,0.01,0.02,0.02,0.03,0.03
			c-0.77-0.89,0.57-2.14,1.4-1.29c0.44,0.57,0.76,1.22,1.18,1.8c1.88,2.73,4.12,5.25,6.88,7.13c2,1.36,4.16,2.63,6.54,3.15
			c1.18,0.53,4.26-0.24,4.37,1.34C110.26,215.44,109.82,215.89,109.3,215.88z"/>
		<path class="st13" d="M127.76,246.28c-11.64-5.69-17.33-18.94-19.2-31.14c0-0.52,0.43-0.95,0.95-0.95
			c1.23,0.03,0.89,1.6,1.14,2.38c1.8,8.23,4.7,16.7,10.79,22.78c1.86,1.76,3.81,3.48,6.05,4.74
			C129.73,244.66,129.41,246.59,127.76,246.28z"/>
		<path class="st13" d="M132.65,354.34c-1.78,0.04-3.56-1.1-2.12-2.9c-4.36,1.84-9.09,2.78-13.83,2.39
			c-2.25-0.42-5.96-0.35-7.08-2.65c-0.2-1.28,1.18-2.04,1.65-3.1c-6.88,1.4-26.83,1.67-31.04-4.33c0.36-2.19,4.74-3.13,6.4-4.59
			c4.72-2.92,9.15-6.3,13.51-9.72c-4.19-1.43,3.26-6.29,4.41-8.03c2.94-2.8,6.03-5.68,9.9-7.13c-5.74-2.92,8.46-8.62,10.76-9.44
			c4.18-1.43,8.67-1.74,13.05-1.55c1.36,0,1.15,2.15-0.2,1.89c-8.29-0.59-16.51,2.14-23.02,7.26c1.03,0.81,3.3,0.39,3.52,1.97
			c-0.19,1.37-2.06,1.05-3.03,1.52c-1.2,0.36-2.3,0.96-3.37,1.62c-4.22,2.76-7.59,6.59-11.13,10.14c6.05,0.05-0.84,3.9-2.41,5.35
			c-5.1,3.93-10.37,7.66-16.09,10.63c6.5,3.14,13.84,3.45,20.94,3.34c3.8,0.4,14.19-3.82,8.21,3.76c4.62,1.77,9.85,1.5,14.56,0.18
			c2.34-0.7,8.52-3.92,5.96,1.42c5.27,0.49,10.65-0.68,15.46-2.83c-0.03,0.01-0.07,0.03-0.1,0.04c0,0-0.01,0-0.01,0.01
			c7.81-3.75,13.93-10.23,19.76-16.46c1.21-0.81,3.45-5.04,4.83-3.99c0.39,0.32,0.47,0.95,0.13,1.34
			C161.97,342.11,149.59,355.62,132.65,354.34L132.65,354.34z M137.69,303.47c0.14-0.1,0.31-0.16,0.48-0.18
			C138,303.3,137.83,303.37,137.69,303.47z"/>
		<path class="st13" d="M151.47,433.59c-1.52-1.14,0.95-6.78,0.76-8.94c0.4-4.28,0.16-8.58-0.04-12.87
			c-2.79,1.24-2.36-2.46-1.92-4.1c0.77-4.57,1.02-9.16,1.28-13.78c-5.02,3.1-3.41-2-3.08-5.02c0.63-5.48,3.02-10.54,5.06-15.61
			c-6.63,4.26-0.87-11.97-0.06-14.18c3.76-9.17,10.07-17.32,18.01-23.25c0.49-1.56,2.76-0.16,1.69,1.04
			c-2.94,2.18-5.63,4.66-8.05,7.41c-7.06,7.46-11.72,17.27-12.83,27.49c7.65-5.25,1.45,5.16,0.65,8.06
			c-1.74,4.08-2.61,8.39-3.03,12.8c2.99-2.06,3.99-1.21,3.48,2.27c-0.2,4.95-0.65,9.88-1.5,14.77c2.89-2.09,2.09,3.35,2.34,4.85
			c0.33,5.8,0.12,11.63-1.34,17.27c9.18-2.33,17.31-7.51,23.5-14.66c0.74-1.43,2.86-1.06,2.01,0.62
			c-5.46,6.14-12.02,11.62-19.93,14.2C156.22,432.48,153.78,434.28,151.47,433.59L151.47,433.59z M172.44,337.03
			c-0.19,0-0.37-0.04-0.43-0.08C172.15,337.01,172.3,337.04,172.44,337.03z"/>
		<path class="st13" d="M177.62,421.48c-1.2-0.98-0.55-2.84-0.97-4.19c-0.14-1.22,1.77-1.42,1.89-0.2l0,0
			c-0.01-0.04-0.01-0.08-0.02-0.13c0.09,0.47,0.15,0.96,0.19,1.43c0.05,0.48,0.05,0.95,0.09,1.43c6.11-1.48,11.17-5.93,15.16-10.61
			c1.05-1.29,2-2.65,2.83-4.09c0.44-0.68,0.7-1.64,1.57-1.88c2.13-0.04,1.78,3.09,2.05,4.56c6.98-2.64,11.73-9.23,14.9-15.74
			c1.43-2.34,3.24-13.43,6.09-5.83c8.75-8.1,10.88-21.26,9.91-32.64c-0.07-0.96-0.18-1.91-0.18-2.87c0.15-1.49,2.26-0.96,1.91,0.46
			c0.63,7.44,0.69,15.15-1.72,22.3c-0.74,2.79-8.88,20.23-11.87,12.94c-1.7,5.62-4.33,10.96-8.1,15.48
			c-2.16,2.67-13.19,13.11-13,4.34C195.08,412.03,184.65,422.51,177.62,421.48z"/>
		<path class="st13" d="M342.58,437.49c-5.17-3.86-10.84-7.08-17.13-8.69c0.8,0.95,2.19,3.36-0.01,3.41
			c-2.19-0.61-4.21-1.8-6.34-2.61c-5.05-2.04-10.25-3.8-14.98-6.55c1.71,4.48,0.83,5.84-3.79,3.82c-5.18-1.88-10.07-4.52-14.48-7.82
			c-5.54-3.84-10.47-8.76-14.26-14.3c-2.15,4.36-8.81-3.79-10.79-5.56c-2.75-2.96-4.99-6.32-7.08-9.77c-0.74,5.59-2.41,6-5.62,1.33
			c-3.48-4.4-5.88-9.53-7.89-14.74c-2.51-6.3-3.26-13.04-3.68-19.76c0.06-1.01-0.66-2.52,0.63-2.89c0.49-0.09,1.04,0.24,1.11,0.76
			c0.13,1.42,0.22,2.85,0.34,4.27c0.6,12.02,4.84,24.07,12.69,33.28c1.39-10.06,3.45-3.69,6.72,0.97c3.18,4.4,6.89,8.87,11.68,11.52
			c0.97-2.77,2.12-2.51,3.65-0.24c1.65,2.23,3.22,4.38,5.15,6.37c6.86,6.87,15.15,12.5,24.44,15.46c-2.3-6.72-0.97-6.16,4.42-3.14
			c5.24,2.69,10.91,4.38,16.25,6.85c-5.58-7.39,11.93,1.03,13.63,2.17c2.22,1.3,4.32,2.78,6.41,4.27
			C344.67,436.6,343.59,438.2,342.58,437.49z"/>
		<path class="st13" d="M343.08,437.26c-0.89-0.97-0.05-2.91-0.28-4.19c0.01-3.34-0.29-6.68-0.89-9.96
			c0.03-2.24-4.08-11.27,1.19-8.14c0.88-6.72-0.33-13.58-1.83-20.13c-0.53-2.6-1.89-4.97-2.58-7.49c0.31-2.19,2.97-0.85,4.09-0.07
			c0.33-6.34-2.37-12.31-5.02-17.92c-0.52-2.03-6.03-8.87-0.74-7.86c-1.51-6.47-5.77-12.09-11.05-16.01
			c-0.93-0.8,0.37-2.26,1.27-1.42c2.99,2.35,5.87,4.94,7.79,8.26c1.14,1.89,6.93,11.49,1.93,11.12c2.59,5.1,5.23,10.26,6.76,15.79
			c0.64,2.62,3.05,13.46-2.66,9.22c1.97,2.27,7.78,31.26,1.45,28.35C343.15,418.48,347,439.51,343.08,437.26z"/>
		<path class="st13" d="M370.52,361.72c-6.51-0.24-12.95-2.09-18.22-5.99c1.17,5.24-7.2,0.02-9.02-0.96
			c-4.81-3.09-8.6-7.51-12.24-11.85c-1.45-1.62,0.9-2.71,1.96-0.67c4.66,5.78,10.1,11.5,17.39,13.75c-1.82-4.22,0.96-3.59,3.44-1.54
			c1.92,1.31,3.94,2.49,6.13,3.29c6.4,2.31,13.48,2.68,20.16,1.48c-1.11-0.6-3.83-2.46-1.56-3.36c2.68,0.19,5.39,0.62,8.09,0.38
			c5.04-0.28,9.98-1.39,14.81-2.8c-2.22-2.6,3-2.36,4.42-2.83c3.8-1.03,7.37-2.77,11.2-3.73c-3.31-2.06-6.76-3.88-10.3-5.52
			c-1.11-0.84-5.56-1.37-4.98-3.01c0.18-0.49,0.74-0.74,1.23-0.56c3.82,1.37,7.47,3.15,11.02,5.1c1.39,1.11,7.28,2.96,5.05,5.24
			c-5.15,1.53-10.13,4.01-15.48,4.78c1.18,2.46-2.76,2.44-4.23,3.05c-5.68,1.56-11.63,2.52-17.53,2.11
			C387.26,362.09,372.43,361.82,370.52,361.72z"/>
		<path class="st13" d="M402.68,339.49c-1.63-0.37-0.6-2.22,0.62-2.36c-2.15-2.47-4.96-4.25-7.71-5.99
			c-1.35-0.83-2.78-1.51-4.22-2.17c-1.63-0.62-5.69-2.14-2.36-3.74c-5.18-4.46-11.45-8.03-18.21-9.33c-2.06,0.1-2.56-1.81-0.81-2.03
			c1.86,0.22,3.69,0.65,5.46,1.26c2.43,0.65,18.75,8.48,15.21,11.47C393.57,327.63,412.05,337.29,402.68,339.49z"/>
		<path class="st13" d="M103.04,339.74c-1.21-0.17-0.97-2.07,0.26-1.89c0.97-0.02,1.89-0.46,2.81-0.73c3.82-1.33,7.45-3.1,11.16-4.7
			c10.03-4.07,18.4-12.43,29.34-14.1c1.21-0.17,1.49,1.73,0.26,1.89c-8.03,1.09-14.54,6.54-21.55,10.19
			c-4.3,2.72-9.08,4.49-13.69,6.59C108.84,338.04,106.04,339.65,103.04,339.74z"/>
		<path class="st13" d="M137.51,326.85c-2.64-1.5,3.68-7.11,5.33-7.81c1.06-0.62,2.03,1.03,0.96,1.65c-2.15,1.19-4.01,3.08-5.07,5.3
			C138.68,326.58,138.09,327.01,137.51,326.85z"/>
		<path class="st13" d="M121.22,336.54c-2.08-0.92,3.1-6.86,4.22-7.7c0.86-0.88,2.24,0.49,1.35,1.35c-1.43,1.18-2.55,2.64-3.44,4.26
			C122.75,335.2,122.5,336.98,121.22,336.54z"/>
		<path class="st13" d="M127.5,327.5c-6.7-0.14-4.77-4.19-2.94-2.51c1.36,0.52,2.86,0.72,4.3,0.51
			C130.68,325.67,130.32,327.86,127.5,327.5z"/>
		<path class="st13" d="M110.72,336.03c-1.26-0.31-4.66-0.24-4.26-2.16c0.48-1.58,4.58,1.44,8.14-0.1c0.5-0.14,1.04,0.17,1.17,0.67
			C115.94,336.41,112.05,336.08,110.72,336.03z"/>
		<path class="st13" d="M164.5,417.1c-1.65-0.43,1.48-5.72,1.63-7.05c0.65-1.89,1.27-3.79,1.81-5.72
			c4.52-19.51,12.36-38.54,25.93-53.54c1.45-1.23,2.41,0.8,0.91,1.83c-8.96,10.33-15.72,22.46-20.23,35.35
			c-2.63,7.71-4.1,15.77-6.89,23.44C166.92,412.64,166.22,417.81,164.5,417.1z"/>
		<path class="st13" d="M174.62,405.05c-1.17-1.21-3.46-17.16-1.06-16.72c1.72,0.28,0.62,2.73,0.95,3.95
			c0.08,2.07,0.2,4.15,0.45,6.2c0.28,1.82,0.46,3.7,1.18,5.41C176.89,404.87,175.34,406.04,174.62,405.05z"/>
		<path class="st13" d="M167.38,383c-0.22-1.34,1.75-1.47,2.47-2.28c1.65-1.16,3.4-2.18,4.99-3.42c1.19-0.89,1.9-2.47,3.21-3.11
			c3.98,0.73-4.61,6.52-5.79,7.2C170.97,381.94,168.46,385,167.38,383z"/>
		<path class="st13" d="M184.32,378.18c-0.92-1.57,0.13-17.62,2.18-17.53c1.93,0.36,0.35,2.95,0.3,4.2
			c-0.41,2.16-0.61,4.35-0.76,6.42c-0.15,2.08-0.2,4.16-0.09,6.24C185.99,378.33,184.88,378.78,184.32,378.18z"/>
		<path class="st13" d="M180.16,358.11c-1.23,0.02-1.23-1.93,0-1.9c0.98,0.06,1.96-0.05,2.93-0.17c2.9-0.38,5.71-1.43,8.15-3.02
			c0.69-0.45,1.65,0.3,1.4,1.08c-0.6,1.07-2.06,1.41-3.07,2.02C186.65,357.48,183.38,358.19,180.16,358.11z"/>
		<path class="st13" d="M197.89,362.53c-0.95-1.01-1.83-13.84,1.18-11.88c0.57,0.42,0.32,1.04,0.14,1.57
			c-0.2,1.33-0.22,2.47-0.24,3.78c0.01,1.89,0.1,3.78,0.45,5.64C199.57,362.45,198.52,363.05,197.89,362.53z"/>
		<path class="st13" d="M328.26,414.62c-5.95-8.06-8.35-18.12-13.6-26.58c-6.48-11.55-18.04-25.41-29.79-31.69
			c-0.75-0.56-2.32-0.46-2.23-1.69c0.2-1.11,1.47-0.86,2.2-0.43c6.99,3.32,12.75,8.64,17.83,14.4c9.54,9.8,16.2,21.82,21.32,34.41
			c1.33,3.22,2.97,6.3,4.91,9.19c0.45,0.77,1.65,1.72,0.69,2.55C329.19,415.1,328.57,415.03,328.26,414.62z"/>
		<path class="st13" d="M318.06,407.08c0.13-3.57,0.71-7.05,0.46-10.6c-0.02-0.86-0.61-2.24,0.64-2.46
			c2.6,0.02,0.75,9.84,0.86,11.86c-0.07,0.81,0.15,2.12-1.01,2.15C318.49,408.03,318.06,407.6,318.06,407.08z"/>
		<path class="st13" d="M320.55,389.55c-1.36-0.55-6.78-2.12-5.71-4.07c0.32-0.41,0.92-0.49,1.34-0.17c1.74,1.26,3.79,2.27,5.92,2.6
			C324.04,388.42,322.88,390.59,320.55,389.55z"/>
		<path class="st13" d="M302.45,389.86c-0.38-0.26-0.54-0.83-0.3-1.24c0.27-1.41,0.39-2.85,0.57-4.27c0.63-4.23,0.1-8.49-0.87-12.63
			c-0.12-0.99-0.84-1.94-0.71-2.93c0.24-0.78,1.45-0.85,1.76-0.08c0.69,1.74,1.04,3.58,1.37,5.41c0.76,3.55,0.79,7.2,0.3,10.79
			C304.17,386.19,304.7,390.86,302.45,389.86z"/>
		<path class="st13" d="M306.3,366.35c-1.63,0.16-11.34-1.45-10.29-3.8c0.8-1.27,2.21,0.24,3.21,0.5c1.24,0.54,2.55,0.9,3.88,1.1
			c2.12,0.27,4.11,0.54,6.15,0c1.11-0.45,1.85,1.27,0.74,1.75C308.82,366.32,307.54,366.36,306.3,366.35z"/>
		<path class="st13" d="M287.81,376.12c-0.05-6.54,0.37-13.74-3.22-19.48c-0.66-1.03,0.96-2.07,1.61-1.02
			c1.48,2.34,2.48,4.96,2.83,7.71c0.13,1.7,1.88,14.01-0.23,13.7C288.3,377.06,287.81,376.64,287.81,376.12z"/>
		<path class="st13" d="M393.53,345c-14.15-7.16-29.72-12.76-45.8-11.67c-0.81,0.04-1.62,0.14-2.43,0.18c-1.17-0.04-1.17-1.87,0-1.9
			c12.55-1.2,25.23,1.31,36.8,6.15c4.18,1.64,8.25,3.52,12.26,5.52C395.45,343.81,394.64,345.55,393.53,345z"/>
		<path class="st13" d="M384.43,344.68c-0.74-1.59-1.72-3.08-2.96-4.34c-0.63-0.83-2.62-1.51-1.74-2.76
			c1.71-1.6,5.82,4.77,6.39,6.22C386.71,344.89,384.98,345.78,384.43,344.68z"/>
		<path class="st13" d="M369.44,334.34c-1.59,0.42-2.34-1.68-0.6-1.9c3.13-0.07,6.35-0.44,9.29-1.5c0.92-0.74,2.11,0.7,1.21,1.47
			C376.37,333.93,372.75,334.13,369.44,334.34z"/>
		<path class="st13" d="M360.09,339.39c-1.68-1.28-2.84-3.13-4.56-4.38c-0.77-0.96-3.14-1.03-2.84-2.52
			c1.47-2.65,7.13,4.24,8.44,5.3C362.17,338.47,361.11,340.09,360.09,339.39z"/>
		<path class="st13" d="M188.89,237.35c-6.72,0.13-8.3-8.37-3.21-11.88c5.51-6.65,15.91-9.05,23.5-4.59
			c4.69,2.77,8.46,11.43,2.08,14.39c-3.03,1.01-6.31,0.39-9.45,0.69C197.48,236.12,193.23,237.47,188.89,237.35L188.89,237.35z
			 M190.56,235.46c4.86-0.57,9.69-1.62,14.61-1.52c12.55,1.55,7.54-11.63-0.96-13c-6.3-1.54-13.21,1.02-17.26,5.97
			C182.34,230.4,184.68,236.34,190.56,235.46z"/>
		<path class="st13" d="M185.01,228.69c-1.08-0.15-1.06-1.72-0.01-1.91c2.81-0.44,5.91-0.23,8.67-0.51
			c6.15-0.51,12.29-1.24,18.47-1.34c1.22-0.01,1.24,1.91,0,1.9C203.08,227.15,194.03,228.22,185.01,228.69z"/>
		<path class="st13" d="M196.59,229.54c-1.01-0.79-0.79-2.93,0.8-2.39c0.75-0.57,1.89-0.31,2.75-0.73c0.67-0.21,1.41-0.77,2.11-0.36
			c0.69,0.43,0.58,1.38,0.29,2.02C201.67,230.38,198.36,231.41,196.59,229.54z"/>
		<path class="st13" d="M308.89,237.35c6.72,0.13,8.3-8.36,3.21-11.88c-5.51-6.65-15.91-9.05-23.5-4.59
			c-4.69,2.77-8.46,11.43-2.08,14.39c1.93,0.64,3.97,0.62,6.01,0.6c1.15-0.01,2.3-0.02,3.43,0.09c4.15,0.17,8.22,1.41,12.37,1.41
			C308.52,237.35,308.7,237.35,308.89,237.35L308.89,237.35z M310.83,226.91c4.61,3.49,2.27,9.43-3.61,8.55
			c-4.86-0.57-9.69-1.62-14.61-1.52c-12.55,1.55-7.54-11.63,0.96-13c1.23-0.3,2.49-0.44,3.74-0.44
			C302.47,220.5,307.58,222.93,310.83,226.91z"/>
		<path class="st13" d="M312.78,226.78c-2.81-0.44-5.91-0.23-8.67-0.51c-6.15-0.51-12.29-1.24-18.47-1.34
			c-0.61-0.01-0.92,0.47-0.92,0.95c0,0.48,0.3,0.96,0.92,0.95c9.06,0.32,18.1,1.39,27.13,1.86
			C313.85,228.54,313.83,226.97,312.78,226.78z"/>
		<path class="st13" d="M301.19,229.54c1.01-0.79,0.79-2.93-0.8-2.39c-0.75-0.57-1.89-0.31-2.75-0.73
			c-0.67-0.21-1.41-0.77-2.11-0.36c-0.69,0.43-0.58,1.38-0.29,2.02c0.55,1.47,2.12,2.43,3.63,2.43
			C299.72,230.51,300.55,230.21,301.19,229.54z"/>
		<path class="st13" d="M193.44,207.68c-2.86-0.01-4.37-3.6-1.47-4.94c3.47-3.4,9.36-4.63,14.08-3.52c4.66,1.11,4.29,5.58-0.2,6.58
			C201.71,206.33,197.62,207.59,193.44,207.68L193.44,207.68z M194.39,205.78c1.92-0.11,3.64-0.58,5.48-0.94
			c1.74-0.63,7.9-0.21,7.51-2.78c0.01,0.01,0.02,0.03,0.03,0.04c0,0,0.01,0.01,0.04,0.06c-3.94-3.08-10.09-0.99-13.87,1.51
			c-0.07,0.53-0.59,0.71-1.01,0.91C191.58,205.56,193.69,205.91,194.39,205.78z"/>
		<path class="st13" d="M300.59,207.28c-3.91-0.42-8.27-0.07-11.71-2.25c-1.62-1.04-1.95-3.47-0.28-4.62
			c2.76-3.19,13.51-0.09,16.49,2.23C308.72,206.47,303.91,207.74,300.59,207.28L300.59,207.28z M302.91,205.38
			c0.51-0.06,1.04-0.08,1.51-0.31c-0.67-2.82-11.63-4.94-14.07-3.7C285.84,205.18,300.96,205.43,302.91,205.38z"/>
		<path class="st13" d="M244.13,261.18c-8.74-0.43-18.07-5.33-21.77-13.51c-3.04-8.42,3.05-13.57,11.27-12.33
			c6.86,0.33,13.52,2.51,20.42,2.48c3.16,0.04,6.08-0.3,9.16-0.78c3.58-0.73,8.99-1.31,10.11,3.23c1.63,8.21-4.41,15.32-11.63,18.35
			C256.22,261.09,250.04,261.29,244.13,261.18L244.13,261.18z M250.59,259.14c8.05-0.34,17.62-3.96,20.32-12.21
			c0.86-2.61,1.89-7.48-1.72-8.35c-2.69-0.49-5.36,0.41-8.03,0.67c-3.99,0.54-8.04,0.6-12.05,0.19c-4.91-0.59-9.75-1.8-14.69-2.16
			c-3.25-0.26-5.21-0.37-8.23,0.94c-6.92,5.6,0.71,14.58,6.47,17.63C238.01,259.16,244.45,259.7,250.59,259.14z"/>
		<path class="st13" d="M244.7,246.58c-5.93-0.24-12.12-1.29-17.18-4.55c-1.05-1.01-3.98-2.26-3.85-3.81
			c0.21-0.93,1.67-0.97,1.93-0.05c9.08,9.02,34.09,8.03,45.02,2.78c0.74-0.35,1.77-1.23,2.4-0.24c0.26,0.44,0.11,1.05-0.34,1.3
			C264.19,246.53,254.13,247.02,244.7,246.58z"/>
		<path class="st13" d="M259.07,258.24c-5.19-6.45-13.15-6.72-20.44-4c-1.58,0.56-3.08,1.4-4.24,2.63c-0.25,1.2-2.12,0.79-1.9-0.41
			c1.66-3.16,5.73-4.13,8.93-5.02c5.36-1.36,11.71-1.09,16.06,2.67c1.02,0.87,1.96,1.85,2.93,2.78
			C261.29,257.75,259.94,259.12,259.07,258.24L259.07,258.24z M234.06,255.92c-0.15-0.13-0.34-0.2-0.54-0.21
			C233.73,255.73,233.91,255.8,234.06,255.92z"/>
		<path class="st13" d="M334.21,144.15c-0.1-7.11-2.61-11.75-8.35-15.92c-0.71-0.69-2.55-1.32-1.76-2.55
			c0.32-0.41,0.93-0.49,1.34-0.17c4.46,3.35,9.31,7.42,10.05,13.29c-0.03,1.41,1.55,5.75-0.2,6.16
			C334.79,145.03,334.25,144.67,334.21,144.15z"/>
		<path class="st13" d="M318.99,122.42c-0.57-2.83-1.9-5.89-4.38-7.53c-0.52-0.05-0.88-0.57-0.81-1.07
			c1.65-3.13,5.79,3.76,6.27,5.39c0.39,0.95,0.64,1.94,0.81,2.95C321.06,123.38,319.16,123.65,318.99,122.42z"/>
		<path class="st13" d="M185.66,130.75c-1.19-4.5,2.85-10.89,6.64-13.3c0.91-0.53,2.89-1.76,3.32-0.13c0.1,0.71-0.53,1.08-1.15,1.16
			c-3.78,1.63-6,5.64-7.02,9.46C187.17,129.03,187.66,131.97,185.66,130.75z"/>
		<path class="st13" d="M177.18,142.11c-2.38-0.78,1.13-7.7,2.78-8.44c0.69-0.46,1.65,0.3,1.4,1.08c-0.2,0.6-0.74,0.68-1.06,1.15
			C178.28,137.79,178.79,142.49,177.18,142.11z"/>
		<path class="st13" d="M237.77,155.37c-1.63-2.61,4.01-6.06,6.35-4.99c1.06,0.48,3.61,1.55,2.57,3c-2.03,1.26-3.18-4.28-7.33,1.04
			C239.65,155.34,238.44,156.07,237.77,155.37z"/>
		<path class="st13" d="M226.27,145.92c-0.79-2.34,2.1-4.91,4.3-5.13c1.13,0.01,3.75,0.52,3.1,2.11c-1.55,1.65-3.19-2.6-5.69,2.2
			C228.4,146.14,226.85,146.91,226.27,145.92z"/>
		<path class="st13" d="M241.48,89.05c0.61-4.36,7.12-7.24,10.45-3.94c0.82,0.96,3.31,3.35,1.69,4.4c-1.24,0.44-1.46-1.23-2.07-1.93
			c-1.8-3.26-6.18-2.04-7.87,0.68c-0.44,0.61-0.2,1.76-1.25,1.74C241.92,90,241.48,89.57,241.48,89.05z"/>
		<path class="st13" d="M257.51,93.22c0.21-2.4,4.5-2.82,6.05-1.33c0.98,0.74-0.19,2.27-1.16,1.51c-0.46-0.37-1.03-0.54-1.62-0.51
			C259.66,92.9,258.24,94.95,257.51,93.22z"/>
		<path class="st13" d="M270.37,173.13c-1.96-0.49,0.24-5.03,0.62-6.34c3.05-8.02,14.98-8.81,19.63-1.87
			c0.75,0.97-0.76,2.15-1.51,1.16c-0.48-0.65-1.02-1.23-1.61-1.77c-4.27-3.73-11.88-2.74-14.44,2.53c-0.66,1.38-1.12,2.84-1.44,4.33
			C271.48,171.97,271.5,173.26,270.37,173.13z"/>
		<path class="st13" d="M288.95,159.73c-2.94-1.32,2.64-5.75,4.74-5.23c1.48-0.3,5.28,2.03,2.57,2.96c-2.1-1.37-4.22-1.49-5.88,0.73
			C289.96,158.78,289.94,159.88,288.95,159.73z"/>
		<path class="st13" d="M312.05,154.88c-3.28-7.2-5.97-3.27-6.6-5.77c0.48-1.99,3.51-0.47,4.73,0.09
			C311.57,149.7,315.55,155.5,312.05,154.88z"/>
		<path class="st13" d="M157.07,218.43c-1.15-1.52-0.55-3.78-0.41-5.55c0.67-5.81,6.27-10.89,12.24-9.88
			c1.22,0.16,0.96,2.07-0.26,1.89c-4.71-0.81-9.2,3.1-9.98,7.64c-0.26,1.5-0.48,3.06-0.23,4.58
			C159.05,217.96,157.92,219.12,157.07,218.43z"/>
		<path class="st13" d="M167.79,204.06c-2.6-1.07-0.91-6.44,0.85-7.68c0.78-0.25,1.53,0.71,1.08,1.4c-0.83,1.3-1.55,2.9-1.25,4.47
			C169.57,202.71,168.93,204.36,167.79,204.06z"/>
		<path class="st13" d="M211.67,176.43c-2.7-2.66,3.75-8.91,6.22-10.08c1.31-1.22,8.35-1.81,8.1,0.67
			c-0.13,0.49-0.68,0.82-1.17,0.67c-4.08-1.68-8.22,1.06-10.49,4.38c-0.57,0.92-1.25,1.84-1.43,2.93
			C213.25,175.8,212.58,176.8,211.67,176.43z"/>
		<path class="st13" d="M200.99,188.36c-1.92-1.99,3.78-6.05,5.83-5.71c1.23-0.02,4.24,0.32,3.6,2.1c-0.27,0.45-0.85,0.59-1.3,0.34
			C203.54,182.54,202.76,189.51,200.99,188.36z"/>
		<path class="st13" d="M151.31,250.26c-5.85-4.16-4.77-16.95,2.07-19.63c1.76,0.59,0.31,1.95-0.62,2.53
			c-4,3.48-4.19,10.07-1.59,14.44c0.35,1.05,1.89,0.72,1.94,1.87C153.1,250.4,152.02,250.6,151.31,250.26z"/>
		<path class="st13" d="M141.61,245.68c-0.4-2.1,4.99-7.98,6.61-5.41c0.44,1.31-2.54,1.47-3.65,3.29c-0.47,0.62-1.08,1.31-1.05,2.13
			C143.52,246.91,141.6,246.92,141.61,245.68z"/>
		<path class="st13" d="M361.83,259.5c-0.8-0.64-0.1-1.48,0.36-2.07c0.79-1.2,1.46-2.48,1.93-3.84c1.74-4.4-0.16-10.34-4.88-11.86
			c-1.46,0.17-1.73-2.06-0.18-1.95c6.13,1.14,9.03,8.75,6.92,14.24C365.4,255.34,363.68,260.55,361.83,259.5z"/>
		<path class="st13" d="M368.13,259.27c0.5-4.64-3.98-5.04-2.64-6.76c1.87-1.09,4.2,2.92,4.36,4.55c0.1,1,0.74,3.01-0.76,3.17
			C368.57,260.23,368.12,259.79,368.13,259.27z"/>
		<path class="st13" d="M337.62,255.81c-0.91-1.39,2.38-2.55,2.19-4.62c0.06-1.75-0.89-3.64-2.41-4.54
			c-2.76-0.09-0.48-3.78,2.23-0.66c2.04,2.09,2.89,5.59,1.1,8.09C340.03,254.9,338.8,256.98,337.62,255.81z"/>
		<path class="st13" d="M330.07,209.21c-1.46-1.1,2.93-3.98-0.65-5.76c-0.69-0.08-1.44,0.73-2-0.07c-1.01-2.61,3.94-2.22,4.76,0.02
			C333.37,204.8,332.39,210.2,330.07,209.21z"/>
		<path class="st13" d="M211.93,204.86c-1.13-0.77,0.19-1.96,0.38-2.9c0.33-0.77-0.03-2.14,1.17-2.17
			C215.65,199.76,213.58,205.92,211.93,204.86z"/>
		<path class="st13" d="M283.68,205.21c-0.86-1.19-1.67-2.51-2.16-3.87c0-0.52,0.43-0.95,0.95-0.95c1.38,0.23,1.44,2.16,2.29,3.08
			C286.01,204.44,285.01,206.41,283.68,205.21z"/>
		<path class="st13" d="M189.98,218.3c-0.85-2.83,5.9-3.77,7.9-3.73c1.84,0.47,0.84,2.27-0.88,1.93
			C192.6,216.44,191.04,219.64,189.98,218.3z"/>
		<path class="st13" d="M291.36,216.59c-0.71-3.16,7.99-2.29,9.8-1.68c1.57,0.85,0.42,2.46-1.59,1.59
			c-2.24-0.38-4.71-0.56-6.83,0.37C292.32,217.24,291.63,217.06,291.36,216.59z"/>
		<path class="st13" d="M247.81,266.68c-1.36-0.02-6.5-0.19-4.51-2.51c0.39-0.23,0.88-0.14,1.18,0.17c2.67,0.69,5.52,0.46,8.24,0.18
			c0.52-0.07,1,0.3,1.07,0.81C253.86,267.29,249.17,266.45,247.81,266.68z"/>
		<path class="st13" d="M206.39,291.02c-8.13-0.49-13.18-5.77-11.68-14.05c0.13-0.5,0.68-0.8,1.17-0.67
			c0.92,0.25,0.65,1.22,0.58,1.93c-1.1,7.89,5.63,11.61,12.67,10.77c0.51-0.07,1,0.3,1.07,0.81
			C210.15,291.57,207.56,290.91,206.39,291.02z"/>
		<path class="st13" d="M194.99,280.93c-3.22-0.1-6.44-2.76-6.43-6.12c0-0.52,0.43-0.95,0.95-0.95c1.52,0.17,0.7,2.58,1.95,3.45
			c0.91,0.96,2.19,1.67,3.53,1.72C196.22,279.02,196.22,280.95,194.99,280.93z"/>
		<path class="st13" d="M268.41,292.79c-1.43-0.31-5.57-0.68-4.41-2.89c0.43-0.44,1.08-0.31,1.48,0.11
			c3.29,1.45,7.65,1.58,10.56-0.78c0.96-0.76,2.15,0.76,1.16,1.51C274.79,292.74,271.45,293.24,268.41,292.79z"/>
		<path class="st13" d="M249.97,307.81c-4.05-0.53-9-2.59-10.56-6.61c0-0.52,0.43-0.95,0.95-0.95c0.89,0,0.93,1.03,1.48,1.51
			c5.37,6.25,15.14,5.06,19.11-2.06C266.25,297.17,258.58,308.82,249.97,307.81z"/>
		<path class="st13" d="M295.88,300.35c-1.66-0.05-8.22-0.95-6.15-3.56c0.43-0.25,1.07-0.12,1.3,0.34c2.94,1.8,7.01,1.62,10.23,0.62
			c2.53-0.94,4.86-2.7,6.1-5.14c0.7-0.89,0.45-3.11,2-2.87c1.61,0.77-0.09,2.98-0.5,4.12C306.31,298.37,300.94,300.73,295.88,300.35
			z"/>
		<path class="st13" d="M317.85,287.48c-1.23-0.33-3.57-2.42-1.49-3.19c0.46-0.06,0.93,0.24,1.05,0.69c1.68,1.49,4.31,1.49,6.25,0.5
			c1.21-0.57,2.15-1.65,2.44-2.97c0.31-1.19,2.17-0.68,1.84,0.51C326.96,287.25,321.62,289.14,317.85,287.48z"/>
		<path class="st13" d="M317.47,274.85c-1.51-1.9,2.12-1.9,3.14-2.68c1.78-0.64,2.6-2.23,3.52-3.67c2.42-0.65,1.09,2.42,0.16,3.29
			C322.8,273.34,319.61,275.39,317.47,274.85z"/>
		<path class="st13" d="M259.63,342.67c-4-0.57-8.37-2.07-10.76-5.51c-0.58-0.8-1.13-2.59,0.33-2.71c0.52,0,0.95,0.43,0.95,0.95
			c2.49,4.7,9.3,6.07,14.19,5.1c1.95-0.45,3.87-1.02,5.67-1.91c0.63-0.37,1.55-0.91,2.06-0.06
			C273.2,341.13,261.5,343.27,259.63,342.67z"/>
		<path class="st13" d="M276.68,341.34c-3.29,0.01-6.73-1.59-8.4-4.51c-0.5-0.83-1-2.64,0.44-2.75c1.25,0,0.84,2.25,2.36,3.24
			c6.4,5.45,12.48-1.34,13.49,0.57C285.36,340.25,278.36,341.39,276.68,341.34z"/>
		<path class="st13" d="M307.36,324.39c-1.54-0.14-7-1.36-5.38-3.62c1.24-0.88,3.2,2.9,8.72,1.47c2.51-0.62,5.01-1.89,6.5-4.06
			c0.52-0.68,0.74-2.15,1.9-1.72c1.21,0.6,0.17,1.94-0.29,2.73C316.32,322.79,311.65,324.64,307.36,324.39z"/>
		<path class="st13" d="M319.22,322.86c-6.1-0.39-3.37-5.26-1.94-2.5c2.16,1.68,5.77-0.83,6.27,0.86
			C323.64,323.13,320.53,322.76,319.22,322.86z"/>
		<path class="st13" d="M168.02,299.78c-6.78-0.86-13.89-4.91-16.07-11.68c0.31-1.62,1.91-0.98,2.1,0.4c1.98,3.83,5.38,6.9,9.5,8.24
			c1.54,0.52,3.12,0.94,4.74,1.16C169.49,298.04,169.24,299.96,168.02,299.78z"/>
		<path class="st13" d="M166.51,306.76c-3.01-1.61-4.75-5.9-3.53-9.1c0.84-1.56,3.08-0.08,1.59,1.08c-0.34,2.37,0.68,5.24,2.9,6.38
			C168.55,305.72,167.57,307.39,166.51,306.76z"/>
		<path class="st13" d="M357.86,293.46c0-0.5,0.4-0.92,0.9-0.95c3.63-2.11,5.29-6.53,5.72-10.53c0.41-1.26-0.94-3.68,0.68-4.16
			c2.96,0.37,0.28,9.71-0.87,11.42C363.65,290.73,359.01,296.69,357.86,293.46z"/>
		<path class="st13" d="M363.88,287.21c-0.94-0.71,0.1-2.2,1.09-1.56c1.61-0.07,3.04-1.21,4.04-2.41c0.75-0.98,2.27,0.2,1.51,1.16
			C369.01,286.16,366.26,288.39,363.88,287.21z"/>
		<path class="st13" d="M196.15,334.86c-3.94-0.17-8.33-1.49-9.96-5.45c-0.44-1.23-1.84-4.41,0.12-4.8
			c1.74-0.06,0.14,4.43,3.91,6.78c2.63,1.54,5.91,1.75,8.88,1.52c0.51-0.07,1,0.3,1.07,0.82
			C200.1,335.54,197.38,334.76,196.15,334.86z"/>
		<path class="st13" d="M192.29,322.81c-2.95-1.04-5.37-3.95-5.44-7.13c0-0.52,0.43-0.95,0.95-0.95c1.45,0.08,0.81,2.76,1.93,3.78
			c0.82,1.45,2.41,2,3.64,2.91C193.81,322.1,193.07,323.07,192.29,322.81z"/>
		<path class="st13" d="M94.59,354.94c-1.62-0.07-10.6-1.56-10.12-3.56c0.66-1.57,2.49,0.04,3.6,0.24c2.13,0.72,4.33,1.27,6.58,1.42
			c1.96,0.1,3.93,0.12,5.89-0.05c0.52-0.05,1,0.28,1.07,0.81C101.78,355.84,96.01,354.78,94.59,354.94z"/>
		<path class="st13" d="M114.14,358.78c-1.73-0.36-4.71-0.36-5.3-2.35c0-0.52,0.43-0.95,0.95-0.95c2.99,1.71,6.72,1.74,10.12,1.27
			c0.51-0.08,1,0.3,1.07,0.81C121.05,359.59,115.56,358.74,114.14,358.78z"/>
		<path class="st13" d="M206.58,412.16c-0.6-1.67,2.16-1.96,2.99-3.02c1.87-1.49,3.53-3.25,4.87-5.23c1.28-1.95,2.44-3.98,3.49-6.06
			c0.23-0.46,0.88-0.59,1.3-0.34c1.78,0.85-3.65,7.94-4.49,9.2C213.6,408.02,208.16,414.03,206.58,412.16z"/>
		<path class="st13" d="M224.6,392.36c-1.46-1.21,4.05-4.36,4.57-6.59c0.79-1,0.62-3.52,2.26-3.36c0.48,0.13,0.83,0.68,0.67,1.17
			c-0.83,2.72-2.26,5.25-4.41,7.14C226.76,391.3,225.82,393.33,224.6,392.36z"/>
		<path class="st13" d="M349.01,407.17c-0.13-3.6-0.77-7.21-1.84-10.65c-0.12-1.34-2.73-4.18-0.46-4.66
			C349.05,391.35,353.25,413.15,349.01,407.17z"/>
		<path class="st13" d="M347.69,383.03c0.07-4.24-0.95-8.55-3.02-12.25c-0.41-1.32-3.03-2.72-2.04-4.07
			c2.44-1.56,5.91,7.7,6.21,9.61c0.2,1.51,1.91,7.42-0.19,7.67C348.14,383.98,347.68,383.55,347.69,383.03z"/>
		<path class="st13" d="M389.63,362.09c-0.77-0.06-1.59,0.01-2.34-0.22c-0.83-0.3-0.78-1.6,0.09-1.81
			c3.89,0.25,7.87,0.29,11.72-0.49c1.56-0.37,3.07-0.95,4.49-1.7c1.06-0.62,2.04,1.04,0.96,1.64
			C400.04,362.04,394.7,362.22,389.63,362.09z"/>
		<path class="st13" d="M410.08,356.18c-0.05-1.63,3.44-0.38,5.86-2.28c1.06-0.63,2.03,1.03,0.96,1.64
			C415.58,356.36,410.62,358.47,410.08,356.18z"/>
		<path class="st13" d="M385.43,260.14c-1.07-0.5-0.31-1.64-0.06-2.43c3.53-8.48,1.12-16.45-4.56-23.29
			c-0.76-0.96,0.76-2.15,1.51-1.16c4.41,5.57,7.99,12.73,6.26,19.98C388.03,254.63,387.38,260.83,385.43,260.14z"/>
		<path class="st13" d="M375.79,226.58c-0.03-2.25-1.34-4.44-3.14-5.76c-0.46-0.29-1.12-0.51-1.2-1.13
			c0.52-2.96,4.11,1.04,4.77,2.23c0.73,1.2,2.7,5.13,0.52,5.61C376.23,227.53,375.79,227.1,375.79,226.58z"/>
		<path class="st13" d="M117.1,244.28c-8.49-6.49-9.88-12.98-12.72-22.58c-0.36-0.74,0.51-1.6,1.25-1.25
			c0.82,0.48,0.87,1.65,1.21,2.46c1.2,4.37,2.25,8.89,4.7,12.77c1.87,2.67,4.22,5.01,6.73,7.09
			C119.25,243.51,118.07,245.05,117.1,244.28z"/>
		<path class="st13" d="M102.89,232.68c-0.91-1.63-4.96-9.48-2.43-10.34c0.78-0.1,1.19,0.65,1.07,1.34c0.16,1.39,0.67,2.72,1.1,4.05
			c0.51,1.39,1.15,2.72,1.9,3.99C105.16,232.77,103.51,233.75,102.89,232.68z"/>
		<path class="st13" d="M127.1,294.31c-1.76-1.44-2.32-4.1-3.13-6.17c-1.64-4.85-1.5-10.76,1.01-15.26
			c1.06-0.71,1.94,0.63,1.31,1.57C120.99,286.39,131.43,294.59,127.1,294.31z"/>
		<path class="st13" d="M363.58,191.85c-1.86-0.03-3.36-1.14-4.63-2.38c-4.98,1.44-7.59-5.1-3.18-7.65
			c-2.31-9.26,10.66-8.41,10.95,0.1c0.14,1.21,2.25,0.88,2.98,2.1C373.17,187.81,367.44,192.25,363.58,191.85L363.58,191.85z
			 M364.27,189.94c2.15-0.05,6.26-2.61,3.82-4.84c-0.96-0.75-2.57-0.55-2.99-1.96c-0.57-7.97-9.63-7.86-7.37-1.35
			c0.62,0.55,0.18,1.66-0.66,1.64c-1.02,0.05-1.57,1.33-1.71,2.21c-0.06,2.21,2.4,2.16,3.96,1.96
			C361.02,188.29,362.14,190.34,364.27,189.94z"/>
		<path class="st13" d="M367.62,167.12c-2.6,0.02-4.78-1.68-6.12-3.79c-2.81,2.77-8.89,2.32-8.62-2.54
			c-8.14-1.32-8.67-12.75,0.12-13.61c0.62-16.72,20.09-11.92,22.89,1.39c0.6,1.82,3.81,1.51,5.19,3.96
			c3.2,4.66-2.28,10.97-7.35,10.42C372.71,165.35,370.11,166.79,367.62,167.12L367.62,167.12z M367.59,165.21
			c4.46-0.83,3.54-3.26,5.68-4.13c6.42,0.57,10.13-8.07,2.47-9.78c-3.3-2.58-1.59-7.61-8.4-11.47c-3.65-2.46-9.39-1.83-11.42,2.39
			c-0.65,1.48-1.06,3.1-1.02,4.72c0.02,0.57,0.15,1.25-0.3,1.71c-1.59,0.73-3.62,0.62-4.97,2c-2.23,1.96-1.03,5.9,1.19,7.38
			c1.05,0.7,2.35,1.01,3.6,0.92c1.16-0.17,1.49,1.6,0.36,1.87c-0.2,2.93,3.24,2.69,4.98,1.47c0.75-0.42,1.2-1.7,2.23-1.29
			C363.64,162.63,364.8,165.34,367.59,165.21z"/>
	</g>
</g>
</svg>
